<svg xmlns="http://www.w3.org/2000/svg" width="40" height="40"><path fill="#948F96" d="M18.6 1.3h.1c.3 0 .3 0 .5.3v.1c.2.4.2.7.2 1v1l-.1.5v.1l-.2 1 .3.1v.2l.1.1.4.4.1.2v.2h.1l.2.3.2.1h.8c.1 0 .2 0 .3.2h.1l.4.3v.1h.2v.3l.3.3.2.3.1.5.1.2v.2l.2.3v.3h.1l.1.9c.2.3.2.5.2.7v1.3a8 8 0 0 1-.2 1.9l-.1.6v.1l-.1.2v.1l-.2.3v.2a2.5 2.5 0 0 1-.8 1.3v.2l-.2 4.5-.1 2.4v.4l-.1.6v.1c0 .5 0 1-.2 1.5v.8h.1l.2.4c.1.2.1.5 0 .8v.3h-.3l-.3-.2v.8l-.3 1v.2l-.1.4-.1.6-.1.2v.1l-.2.4v.2l-.4 1.1v.1l-.4.6v.1l-.5.9-.4.5v1.3h.5v.2c.2.2.3.5.4 1v.3h-4.2a1.6 1.6 0 0 1 0-1h-.1l-1.5-.1V38h-.4l-.1.6-.3 1h-.4l-.1-.4v-1.8h-.1l-.1-.2a1 1 0 0 0-.3-.1V37l-.2-.1h-.2l-.2.1-.2.1v.1l-.5.2h-.2c-.2 0-.2 0-.3.2v.1c0 .2-.1.2-.2.2h-.8v.2l-.2.3h-.3v.2c0 .2 0 .3-.2.4h-.1v.1h-.4l-.2-.5v-.1H5c0-.4.1-.4.2-.7v-.2h.1l.1-.7v-.2l.1-.2v-2l-.1-.3-.1-.1v-.5h-.1l-.1-.2a1 1 0 0 0-.3-.5l-.3-.3h-.1l-.2-.2c-.4 0-.7 0-1 .3H3v.2l-.3.3v.4h-.2v.2l-.1.5-.1.5h-.1v-2.2h.1v-.1l.1-.6v-.4l.6-1.2c.2-.2.4-.2.6-.2h.1L4 30l.4-.2.1-.2c0-.2.1-.2.2-.2H5v-.1l.2-.4H6v.4h1.3l.5.1h.4c.1 0 .2 0 .3.3v.2h.2c.5.2.5.2.6.6v.6l-3.7.1.1.3v.2h.1v.2H6l.1.6.2.4c.2.5.3 1.2.3 2h.1v.9h2.7v.3h.6l.3.1h.1v.1h.5l.3-.1-.2-.7-.2-.4-.1-.3-.1-.1-.1-.5h-.1V33v.2l.4 1.1v.4h.1v.2h.2l.1.5h.1v.2l.5.1q.6-.6.9-1.8v-.1l.2-.9v-.3l.1-.7V29l-.2-.7v-.6l-.1-.3-.1-.6v-.3l-.1-.1-.1-.3v-.2h-.1v-.4l-.1-.2v-.1L12 25v-.2l-.1-.1v-.2l-.2-.3V24l-.1-.3v-.4l-.2-.1v-.5h-.1l-.1-.3-.1-.5-.2-.4c0-.5-.2-.9-.4-1.2v-.4l-.2-.3v-.4L10 19v.2c.1.8.2 1.7.1 2.6v1.9L10 25v.2l-.1.7v.6l-.1.5v4.1l.2.7v.2h-.2v-.1l-.2-.7v-.4c-.2-1.2-.1-2.5 0-3.7h-.1l-.2-.4v-.6h.4v-1.6h.1v-.9c.2-.7.2-1.4.2-2v-1.4l-.2-1v-.8l-.1-.4a3 3 0 0 0-.3-1l-.2-1v-.2l-.1-.2v-.2L9 15l-.2-.9-.1-.5v-.3h-.1v-.1l-.1-1c-.2-1-.2-2-.2-3.2V7.6l.1-.4h.1V7l-.3-1v-.9c0-.4 0-.9.2-1.3.3-.5.6-.7 1-.7.3 0 .5 0 .8.2v.2c.4 0 .6.5.8 1V5l.5-.4v-.1h.1l.2-.2.5-.5h.1l.7-.4c.4-.2.7-.1 1-.1h.2l1.2.1.6.1.6.2h.4v-.1c0-.5.2-1 .4-1.3l.1-.1c0-.2.1-.2.3-.2v-.4h.2l.1-.1z" style="stroke-width:1"/><path fill="#A2D3FA" d="M14.2 3.6c1.6 0 1.6 0 2.1.2h.3l.7.3.6.4h.1l.4.3.3.2.2.2v.1h.1v.2h.1l.2.3h.1c.2.1.3.4.4.6l.1.2h.1v.2l.2.3-.3.2v.3l-.2.6h-.1v3.1l.1.4v.7h.1v.7h.1v.2l.2.7v.2l.2.7v.4l.1.4c.1.6.3 1 .5 1.3v.2h.1l.2.1c.2.2.5.2.7.2V20c0 1 0 2-.2 3.1V25l-.1.3v.7l-.2 1v1.5l-.2.6v.5l-.2 1-.2.7v.3l-.2.5v.1l-.2.4v.2l-.1.2v.1l-.3.5v.1l-.1.2v.2l-.5.8-.2.5-.2.2c0 .3-.2.4-.4.6l-.1.2-.3.1v.1l-.2.2-.2.2h-.3c-.2-.2-.4-.2-.6-.2s-.2 0-.3-.2l-.2-.5v-.3c-.2-.5-.3-.9-.2-1.5-.2-.1-.2-.1-.2-.3v-.2l-.2-1v-.5h-.1v-.6l-.2-.7v-.6l-.2-.8v-1l-.2-.2v-2l-.2-.3v-.3h-.2v-1.2h-.1v-.7h-.1v-.6l-.1-.3v-1.5l-.1-.2v-.2l-.1-.4V20H14l-.1-.4c-.2-.3-.2-.6-.2-1v-.3.1h.1v.1h.1l.2.1.3.2.3.1h.5l.5-.1h.1l.5-.5.1-.1c.2-.1.3-.4.4-.7h.1v-.2h.1v-.1l.2-.4.4-1.4v-.6c.3-1 .2-2.2.1-3.1V11l-.3-1-.1-.6-.2-.6-.1-.2-.4-.7-.1-.3-.2-.1v-.1a2 2 0 0 0-.7-.5V7h-1.5l-.2.2h-.2v.2h-.2v.2l-.3.2V8H13l-.1.2-.5 1.1h-.1l-.1-.8a3 3 0 0 0-.3-1v-.2l-.3-.5-.1-.3v-.1l-.3-.2v-.9h.1l.3-.4.6-.5h.1v-.2h.2v-.1l.4-.2.2-.1v-.1h1" style="stroke-width:1"/><path fill="#9ECDF2" d="M9.8 6.5h.2c.3 0 .6.2.9.4V7h.1v.1c.3.2.4.6.6 1l.2 1.3.1.5v2.7c0 .9.1 1.5.3 2.2v.4l.2.4v.3l.2.4c.2.3.4.7.4 1.2v.3l.2.7v.3l.1.6v.8c0 .4 0 1 .2 1.3v.4c0 .3.1.7.3 1L14 24v.5l.1.5H14l.1.3.2.3v.2l.3.3v.2h.2l.2.2v.5c-.1.2-.1.3-.3.3l-.2-.2h-.1l-.3-.3-.1-.2v-.3h-.2V26l.1.7h.2v.2l.4.5v.3l.2.7v.8l.3 1v1l.3 1.5v.4l.2 1.5v.5h.1v.4l.1.3v.2l.1.2.1.4v1.1H14l-.5-.2v-.3.2h-.1l-.2.5a2 2 0 0 0-.1.8l-.2.5-.3-.2v-.7c0-.3 0-.5.2-.8V37v.2h-.2l-.2-.2v-.1l-.2-.1v-.1h-.1c0-.3 0-.4.2-.5l.2-.4v-.1h.1v-.2l.1-.5v-.2l.2-.3V34h.1l.2-1.3V29l-.1-.4v-.3l-.1-.4v-.7l-.2-.8v-.5h-.1v-.5h-.1v-.2h-.1v-.4h-.1v-.2l-.1-.4h-.1l-.1-.6v-.3H12l-.1-.5h-.1v-.3l-.2-.4v-.2l-.2-.4V21h-.1v-.2h-.1v-.4H11V20h-.1v-.5h-.2V19l-.1-.1v-.3l-.1-.1v-.2l-.2-.2V18l-.1-.5-.1-.4-.2-.4v-.1l-.1-.5v-.2h-.1v-.6h-.1v-.5l-.1-2.2V12c0-1 0-2 .2-3v-.4h.5v-.2H10c-.2 0-.2 0-.3-.2V8l-.2-.2q0-.3-.3-.3v-.2H9v-.2l.1-.2h.1v-.2l.2-.1v.3h.2v-.2l.1-.2" style="stroke-width:1"/><path fill="#9BC8EC" d="m10.1 19 .1.1v.2l.3.7v.2l.1.3.2.4v.2l.2.7.1.3.2.6.2.6v.3l.2.2v.4l.2.1v.5l.1.1.2.7v.3c.2.3.2.6.2 1l.2.2v.8l.2.7v.6h.1v3.7l-.1.3-.2.8v.2l-.1.2v.1l-.4 1H12c-.2.2-.3.4-.5.4l-.3-.2v-.2l-.2-.2-.1-.3v-.2h-.1l-.1-.2v-.1l-.3-.9v-.2l-.1-.3v1.1l.1.1.1.5.1.3.3.4v.2l.1.1.1.5-.2.1H10l-.2-.1h-.2V36h-.4v-.2h-1l-1.6-.1v-1l-.5-2-.2-.9v-.2h-.1v-.1h-.1l-.2-.3V31h3.8v-.5V32h.5v-.6h-.1v-.8l.1 1v.4h.3c-.2-.5-.2-1-.2-1.5v-4.9c.2-.6.2-1.2.2-1.9V23l.1-.8V19" style="stroke-width:1"/><path fill="#FDFDFD" d="M15.2 7.1v.2h.1c.3 0 .7.2 1 .6l.4.4v.2l.2.3V9l.1.1.1.2v.2h.1l.2.6.3 1.3V14l-.1 1.1-.1.5v.2c-.3.9-.6 1.6-1 2h-.1l-.1.2h-.1c-.2.3-.4.4-.6.4v.1c-.4 0-.8 0-1.1-.2h-.2L14 18c-.3-.1-.4-.3-.5-.6v-.8l-.1-.3V16h-.1v-.7h-.1v-.6l-.1-.3v-.7H13v-.4h-.1v-.5l-.1-.3v-.3l-.1-.2c0-.4 0-.8-.2-1.2V9.5c0-.3.3-.6.4-.8l.1-.3.3-.3.2-.3.2-.3.4-.2v-.1c.4-.2.8-.2 1.1-.2" style="stroke-width:1"/><path fill="#5D5F62" d="M13 3.9h-.2l-.1.2h-.2v.1h-.2v.1h-.1l-.8.9h-.2v1l.2.1.2.4.1.3.2.5.3 1.1V9l.2.3c0-.5.3-1 .5-1.2v-.2h.3v-.2c.1-.1.1-.2.3-.2v-.1l.2-.1V7l.4-.2h.2v-.1h.8l.6.1V7c.4 0 .8.4 1 1h.1l.2.5.1.1.1.5h.1l.2.8v.3l.2.4v.7h.1c.2 1 .2 2.8 0 3.8v.2l-.1.3v.2c-.1.5-.3.8-.5 1.1v.4H17v.2c-.2.4-.3.7-.6.9l-.2.1c-.5.6-1.2.6-1.7.3h-.1l-.5-.3v-.2h-.2v.3l.1.2v.4l.1.4h.1v.4h.1v.3h.1v.7l.1.3v.3l.1 1.3V24h.1v.7h.1v.8h.2v.5c.2.1.2.2.3.4v2l.1.2v.6h.1v.6l.2.8v.5l.2 1.2.1.3.2 1.1v.5l.2.1v.1c0 .6 0 1 .2 1.3l.1.5.2.5h.3l.6.2c.2 0 .3 0 .4-.2h.3v-.2l.4-.5.2-.2.1-.1v-.1l.1-.1.3-.5.1-.3c.3-.5.6-1.1.7-1.7.2-.2.3-.6.3-1l.2-.5.1-.4V31l.1-.5.2-.7V29l.1-.1v-.2l.1-.3.1-1.4.1-1v-.4l.1-.4V24l.1-.3v-1.9L22 20v-2.5c-.4 0-.8 0-1-.5l-.4-.8V16l-.1-.7h-.1l-.3-1.5V13H20v-.7h-.1V12l-.1-.3v-.2l-.1-.2v-3l.1-.3v.4h.1v-.2L20 8v.4l-.1.4v.5l-.1.7v.7l.2 1.9v.4h.1v.5l.1.4.1.2.2 1v.4h.1v.1l.1.2.4.9v.1l.2.1v.1c.3.2.9.3 1.2 0l.3-.7.1-.3c.4-.9.6-2.1.6-3.3v-1.4c.1.4 0 1.2 0 1.6v1.4l-.1 1v.1l-.1.2v.1l-.2.3v.2a2.5 2.5 0 0 1-.8 1.3v.2l-.2 4.5-.1 2.4v.4l-.1.6v.1c0 .5 0 1-.2 1.5v.8h.1l.2.4c.1.2.1.5 0 .8v.3h-.3l-.3-.2v.8l-.3 1v.2l-.1.4-.1.6-.1.2v.1l-.2.4v.2l-.4 1.1v.1l-.4.6v.1l-.5.9-.4.5v1.3h.5v.2c.2.2.3.5.4 1v.3h-4.2a1.6 1.6 0 0 1 0-1h-.1l-1.5-.1V38h-.4l-.1.6-.3 1h-.4l-.1-.4v-1.8l-.7-.6v-.3h.2l.2.2.1.1.2.1h.2v.1h.1l-.2 1v1.2l.2.1.2-.7.2-.7v-.3h.1v-.3h.1v.4h.4l.4.2H16v-1.3l-.1-.4-.1-.2v-.7h-.2v-.7l-.1-.9v-.1l-.2-.8v-.5l-.1-.6-.1-.7-.2-1v-.7l-.2-.8V28l-.2-.6-.1-.1-.2-.1v-.4H14l-.3-.4v-.3h.1l.1.3h.1v.2l.2.2.3.3.1.1h.3v-.8l-.2-.1v-.1h-.1l-.2-.3v-.3h-.1l-.2-.3-.1-.1V25h.1l-.1-1-.2-1v-.2l-.3-.9v-.5a6 6 0 0 1-.2-1.2V19h-.1v-.5l-.1-.2v-.6H13v-.2c0-.6-.3-1-.5-1.4 0-.2 0-.4-.2-.6v-.2c-.2-.3-.2-.7-.2-1L12 14v-3.3l-.1-.8-.1-.4c0-.8-.3-2-.6-2.3L11 7v-.2l-.4-.2-.5-.1h-.3v.2h-.2V5.4c1 0 1 0 1.3.3l.2.2h.1v-.4.4-.7l.4-.3v-.2l.6-.4v-.1l.3-.3.6-.1m1 3.5-.2.2c-.2 0-.3.2-.4.5l-.3.3-.2.4-.2.2v.4l-.1.2h-.1v.7l.1 1v.2l.1.8v.1l.1.6.1.4v.4h.1v.5l.1.6v.5h.2v1.1l.1.4v.1l.2.7.1.2c.1.2.2.2.3.2v.1l.3.2h.1c.3.2.5.3.8.3h.4v-.1c.6-.1 1.2-.9 1.6-1.9.2-.4.2-.4.2-.9v-.1l.1-.2V15l.1-.2v-1h.1V11l-.1-.3-.2-.7v-.2l-.2-.4-.2-.6-.2-.3-.1-.1v-.2l-.3-.2-.1-.1-.2-.2c-.2-.3-.6-.4-.9-.4V7c-.6 0-.6 0-1.2.3" style="stroke-width:1"/><path fill="#434244" d="M36.6 12.9h.8v.2h.2v.1l.2.3.1.1.2.5.1.4v.2a5.5 5.5 0 0 1 0 2.8v.2l-.2.4v.1l-.2.1v.1c0 .3-.2.4-.3.6-.4.3-.8.4-1.1 0H36l-.1.3-.1.1v.2l-.2.2-.2.5-.2.4-.5 1.1-.6 1.1-.4 1-.3.5-.2.5-.1.2-.2.2v3h-.1v.4l-.1.3-.3.5v.1l-.1.3h-.1l-.1.1v.1a1 1 0 0 1-.8.3c-.2 0-.4 0-.6-.2l-.4-.8v-.1h-.1V29h-.1c-.2-.6-.3-1.1-.3-1.8V27l.1-1v-.2h.1v-.4h.1V25l.3-.5v-.2h.1l.2-.2.1-.2h1.4v-.1l.1-.2.1-.2.1-.2.3-.5.2-.6.5-1 1-1.9.2-.6.2-.5.1-.1.2-.3v-.2h.1v-2.9l.4-1v-.2c.1-.3.3-.4.5-.5l.3-.1" style="stroke-width:1"/><path fill="#79A24B" d="m29.4 29.3.1.3.2.5.1.6-.2.6-.1.1v.1l-.2.4-.3.6v.1l-.1.2-.1.1-.2.2v.2c-.5 1.2-.5 1.2-.8 1.4l-.1.4-.2.3.1.2v.3l.3-.5v-.1l.1-.2.2-.3.2-.4.2-.5.3-.6.2-.4.3-.7.2-.6.3-.6.1-.3.3.3.1.1v.8l-.1.4-.3 1.1v.4l-.2.4v.5l-.1.4h-.1v.4l-.1.4v.1l-.2.5v.5l-.1.1-.1.4h-.4v.7h-.3V38h-.1v-.2l.3-.1h-1.2l-.2.1h-.4l-.4.2h-.8l-.4.1-1 .2h-.8l-.7.2-.6.1h-.4l-.2.1h-.8c.2-.3.5-.4.8-.5l.2-.2h.2l.6-.5.3-.1.1-.2.3-.1.4-.4c.2-.2.3-.3.5-.3l.2-.3V36l.3-.3.1-.1v-.1c0-.2.2-.3.3-.4v-.5h.1v.2l.3-.5c0-.3.2-.4.3-.6l.2-.2v-.2h.1l.4-.4.1-.1.4-.5.5-.6.2-.3.1-.3.2-.2.2-.3.1-.1.2-.2.2-.2h.1v-.2h.2v-.2l.2-.1v-.1c.1-.2.2-.2.3-.2" style="stroke-width:1"/><path fill="#393739" d="M5.2 28.9H6v.4h1.3l.5.1h.4c.1 0 .2 0 .3.3v.2h.2c.5.2.5.2.6.6v.6l-3.7.1.1.3v.2h.1v.2H6l.1.6.2.4c.2.5.3 1.2.3 2h.1v.9h2.7v.3h.6l.2.1h.1v1.5H10v.1h-.4c-.2 0-.2 0-.3.2v.2c-.2.2-.3.2-.5.2v.2c0 .2 0 .3-.2.4h-.1v.1h-.4l-.2-.5v-.1H5c0-.4.1-.4.2-.7v-.2h.1l.1-.7v-.2l.1-.2v-2l-.1-.3-.1-.1v-.5h-.1l-.1-.2a1 1 0 0 0-.3-.5l-.3-.3h-.1l-.2-.2c-.4 0-.7 0-1 .3H3v.2l-.3.3v.4h-.2v.2l-.1.5-.1.5h-.1v-2.2h.1v-.1l.1-.6v-.4l.6-1.2c.2-.2.4-.2.6-.2h.1L4 30l.4-.2.1-.2c0-.2.1-.2.2-.2H5v-.1z" style="stroke-width:1"/><path fill="#FDFDFD" d="m22 7.6.1.2.2.1v.3h.1v.1l.3.4V9h.1l.1.3.1.3.2.5v.5h.1v3.5c0 .6-.1 1-.3 1.5v.2l-.3.4v.1q-.15.6-.6.9c-.2 0-.6 0-1-.2v-.4H21l-.2-.4-.1-.1-.1-.6v-.1h-.1v-.1l-.2-.9-.1-.6H20v-1h-.2v-1c-.2-.4-.2-.9-.2-1.4V8.6l.1-.4h.1v-.1c0-.4.2-.5.4-.7l.2-.2c.6-.3 1.1 0 1.5.4" style="stroke-width:1"/><path fill="#A1D342" d="m32.7 31.2.1.4.2.6.2.7.5 1.6.2.7.1.4v.4l.2.5.1.4-.1.1-.1.1H34v.2l-.2.1-.2.2-.7.5c-.5.3-.9.3-1.3.3h-1v-.2l-.6-.1-.2-.2-.4-.3V37l.3-1v-.3l.1-.4.2-1 .2-.9.1-.5.1-.9.1-.3v-.3l.4.1.6.1.5-.1.4-.1v-.1c0-.2.2-.2.3-.1" style="stroke-width:1"/><path fill="#505A36" d="m27.6 19 .1.3.3.7h.1l.2.5.1.3.3.5.4.8.2.5.1.3.2.4.3.4v.3l-.1.3-.2.4v.1l-.1.6-.1.3-.1 1.5H26v-2.4l.1-.5v-.5l.2-.8.1-.5v-.1l.1-.2.2-.4v-.6l.1-.2v-.2l.1-.1.2-.5.1-.3c0-.3.3-.8.4-.8" style="stroke-width:1"/><path fill="#79A24B" d="M33.7 27h3.2v2l-.2 2.2v.3h-.1v.4l-.2.3v.3l-.3.7v.1l-.2.6-.1.2-.3.6v.3h-.1c-.2-.1-.3-.3-.3-.5H35l-.2-.5-.2-.3c0-.3-.2-.5-.3-.8l-.6-1.2-.3-.5V31l-.1-.2-.1-.2-.1-.1.1-.6h.1v-.7h.1V29l.1-.3v-.5h.1V27" style="stroke-width:1"/><path fill="#B492F7" d="m9.7 30.5.1 1v.4h.3l-.2-1.1.1.3v.5l.1.7v.3h.1l.1.5v.2h.1l.1.5.1.2v.2l.1.1v.1l-.3-.9v-.2l-.1-.3v1.1l.1.1.1.5.1.3.3.4v.2l.1.1.1.5-.2.1H10l-.2-.1h-.2V36h-.4v-.2h-1l-1.6-.1v-1l-.5-2-.2-.9v-.2h-.1v-.1h-.1l-.2-.3V31h3.8v-.5V32h.5v-.6h-.1v-.8Z" style="stroke-width:1"/><path fill="#A2D343" d="M29.1 27.6v.3l.2.4v.7l-.2.2-.3.2v.2l-.1.1-.1.1h-.2v.2l-.1.2h-.1l-.2.1v.2l-.1.2h-.1l-.2.1v.2l-.1.2h-.1l-.2.1v.2l-.1.2h-.3v.3l-.1.1h-.1l-.2.2v.1l-.1.2h-.1l-.2.1v.2l-.3.2v.1c0 .3-.2.5-.4.6v.1c0 .2 0 .3-.2.4v.2H25l-.1.3-.4.4v.1h-.2v.2l-.3.3v.1l-.2.2h-.1v.3h-.2v.2h-.3v.1l-.1.2H23l-.2.2-.2.2-.3.3-.6.2v.1l-.3.3-.4.2-.4.3h-.2v.2h-.1l-.3.1c0-.2.1-.2.3-.4v-.1l.4-.2.2-.3.4-.4.1-.2h.1l.4-.4h.1v-.2h.2l.2-.3.2-.1v-.1l.1-.2.1-.1.2-.1v-.1l.1-.1v-.2h.2v-.2l.3-.4.2-.2v-.1l.2-.2.6-1.1V33h.1v-.2h.1v-.2l.3-.5.3-1v-.4h-.1v-.6h.3v.1-.5h-.1V29c0-.3 0-.6.2-.8v-.6h3.5" style="stroke-width:1"/><path fill="#78A24B" d="M31.4 15.8v6.7h-.3v.1h-.4v.1l-.2.2-.1.1h-.2l-.2-.4V22l-.1-.1v-.4l-.3-.6v-.4l-.3-.8-.1-.4-.1-.2v-.4l-.2-.4-.2-.5v-.5l.2-.3h.1l.4-.4.3-.3.5-.3h.2l.2-.1.2-.1z" style="stroke-width:1"/><path fill="#465260" d="M18.6 1.3h.1c.3 0 .3 0 .5.3v.1c.2.4.2.7.2 1v1l-.1.5v.1l-.2 1 .3.1v.2l.1.1.4.4.1.2v.2h.1l.2.3.2.1h.8c.1 0 .2 0 .3.2h.1l.4.3v.1h.2v.3l.3.3.2.3.1.5.1.2v.2l.2.3v.3h.1l.1.9c.2.3.2.5.2.7v1.3l-.1 1.5h-.1V11l-.1-.5V10H23v-.3l-.1-.2v-.3h-.1V9h-.1l-.1-.2-.3-.5v-.1l-.1-.2-.1-.1-.2-.2c-.4-.5-.9-.7-1.4-.5l-.1.1-.5.5-.2.4v.2h-.1c0-.4 0-.6.2-.9v-.2l.3-.2-.3-.6-.4-.5-.2-.2v-.2l-.3-.1v-.2l-.1-.1-.4-.3-.4-.2-.2-.1-.5-.4-.9-.3h-.3c-1-.4-2-.2-3.1-.2v.1l-.6.4h-.1l-.3.3-.3.2-.2.3-.2.2h-.1V6v-.4H11v-.1c0-.2-.1-.2-.2-.3V5l-.2-.4v-.2h-.2v-.2l-.2-.2-.3-.1v-.2h-.7c-.3 0-.3 0-.6.3h-.1c-.2.3-.2.6-.3 1v1.1l.1.1.1.4V7l-.1-.2-.2-.5V5.2c0-.4 0-.9.2-1.3.3-.5.6-.7 1-.7.3 0 .5 0 .8.2v.2c.4 0 .6.5.8 1V5l.5-.4v-.1h.1l.2-.2.5-.5h.1l.7-.4c.4-.2.7-.1 1-.1h.2l1.2.1.6.1.6.2h.4v-.1c0-.5.2-1 .4-1.3l.1-.1c0-.2.1-.2.3-.2v-.4h.2l.1-.1.4-.2" style="stroke-width:1"/><path fill="#38363A" d="m4 33 .3.1.2.1v.2h.1l.2.2v.2H5v.4l.2.5v2.2l-.1.4v.2l-.4.7-.2.3c-.3.3-.7.3-1 .2l-.2-.2c-.3-.3-.5-.6-.6-1l-.1-.5v-.1c-.2-.4-.2-1.2-.1-1.7v-.7l.1-.3.2-.4.2-.3h.1v-.2l.2-.1.6-.3" style="stroke-width:1"/><path fill="#505A36" d="m31.7 15.7.9.3h.2l.3.2.3.3.4.3.3.3h.1l.4.7-.1.3-.4.6v.1l-.2.5-.2.3-.3.7-.4.7-.6 1.4-.1.1v.2h-.4l-.2-.2zm4.3 5 .3.7v.4l.1.5v.3h.1v.2h.1v.6l.1.5.1.3v.6l.1 1.3v.6h-3.1l-.1-.2-.1-.6v-.2l.1-.4.3-.7h.1l.2-.5.2-.3.3-.8.4-.8z" style="stroke-width:1"/><path fill="#525C38" d="m30 30.8.2.1v.1l.2.1v.8l-.1.4-.3 1.1v.4l-.2.4v.5l-.1.4h-.1v.4l-.1.4v.1l-.2.5v.5l-.1.1-.1.4h-.4v.7h-.3V38h-.1v-.2l.3-.1h-2.2l-.2.1-.2.1h-.7v.1h-.7v.1h-.5l-.2.1H23l.1-.1h.4V38l.2-.2.6-.1.3-.2h.3l.5-.2.2-.1.4-.1.4-.2.3-.1v-.1c.4-.2.7-.3 1-.9l.2-.4v-.2l.1-.1.2-.4.2-.3.6-1.4.3-.6.6-1.6v-.1Z" style="stroke-width:1"/><path fill="#6F5993" d="M5.2 28.9H6v.4h1.3l.5.1h.4c.1 0 .2 0 .3.3v.2h.2c.5.2.5.2.6.6v.6l-3.7.1.1.3v.2h.1v.2H6l.1.4-.2-.4-.2-.3v-.2l-.2-.1-.2-.3-.1-.1v-.1l-.6-.4-.2-.1h-.5a1 1 0 0 0-1 .5v.2l-.2.1v.4l-.1-.1c.1-.6.4-1 .7-1.2l.4-.1h.1L4 30l.4-.2.1-.2c0-.2.1-.2.2-.2H5v-.1z" style="stroke-width:1"/><path fill="#323033" d="M12.4 10.8v.3c.2.2.2.5.2.8l.1.5v.3h.1l.1 1.1.2.8v1l.2.4v.6l.1.6v.5h.1v.7h.2v.3l.2 1c.2.3.2.8.2 1.2l.2.8v1h-.1v.2l.1 1h.1l.2 1.1v.6l.2.5h-.2l-.2-.3v-.2h-.1l-.2-.3-.1-.1V25h.1l-.1-1-.2-1v-.2l-.3-.9v-.5a6 6 0 0 1-.2-1.2V19h-.1v-.5l-.1-.2v-.6H13V17h-.1v-.7l-.2-.7v-.4l-.1-.5v-.6l-.1-.3v-.4h-.1V13l-.2-.7v-.9H12v-.5h.3Z" style="stroke-width:1"/><path fill="#312F32" d="M6.7 35.9h2.6v1.3l.1-1h.5v1.6h-.6v.3c-.2.3-.3.2-.5.2v.6c-.2.1-.2.2-.3.1v.1h-.4l-.2-.3v-.5c-.4 0-.7-.1-1-.6-.2-.5-.2-1.1-.2-1.8" style="stroke-width:1"/><path fill="#A984EE" d="M4 32.3c.1 0 .3 0 .4.2l.1.1.3.2v.1l.4.6v.1l.1.6c.3.8.3 1.5.3 2.3h-.1v.1c0 .4 0 .7-.2 1v.1l-.2.5v.2H5v.1c-.4.7-.9.9-1.4.8-.2 0-.4-.2-.6-.4v-.1h-.1v-.1l-.1-.1-.1-.2-.2-.4c-.2-.5-.3-1-.3-1.7v-2.9 1.4l.1-.6.2-.6h.1v-.4h.1v-.1l.3-.3v-.2c.3-.3.6-.4 1-.4m-.6.8h-.1l-.2.2v.1l-.3.4-.2.3v.4l-.1.4a6 6 0 0 0 0 2l.1.2v.2c.1.5.3.8.5 1l.2.1v.1c.3.3.8.3 1 .1l.4-.4.2-.4.1-.3v-.2l.2-.5v-2.2L5 34v-.2h-.1l-.2-.5h-.1v-.1l-.3-.3h-.2c-.2-.1-.5-.1-.7.1" style="stroke-width:1"/><path fill="#454F5C" d="M20 8v.2h-.2v1l-.1.7v.7l.2 1.9v.4h.1v.6l.1.4.1.2.2 1v.4h.1v.1l.1.2.4.9v.1l.2.1v.1c.3.2.9.3 1.2 0l.3-.7.1-.3c.4-.9.6-2.1.6-3.3v-1.4c.1.4 0 1.2 0 1.6v1.4l-.1 1v.1l-.1.2v.1l-.2.3v.2a2.5 2.5 0 0 1-.8 1.3v.2l-.2 4.5-.1 2.4v.4l-.1.6v.1c0 .5 0 1-.2 1.5v.8h.1l.2.4c.1.2.1.5 0 .8v.3h-.3l-.3-.2v.2l-.1.8v-.5l-.2.6v-.6l.2-.9v-.3l.1-.3.1-1.4.1-1v-.4l.1-.4V24l.1-.3v-1.9L22 20v-2.5c-.4 0-.8 0-1-.5l-.4-.8V16l-.1-.7h-.1l-.3-1.5V13H20v-.7h-.1V12l-.1-.3v-.2l-.1-.2v-3l.1-.3v.4h.1v-.2z" style="stroke-width:1"/><path fill="#414B58" d="m19.6 15.2.2.4v.1c0 .3.2.3.3.5v1.1l-.2.3v.1c0 .2-.2.2-.3.3l-.3.2v1.1h-.8v-.8.5l.1.1h.5l.1-.6V18h-.6v.3-.5h-.1c-.2 0-.4-.4-.5-.7v-.5c0-.4.1-.6.3-.8 0-.2.2-.2.3-.3l.1-.1v-.1l.2-.2h.1c.2-.2.5-.2.6 0" style="stroke-width:1"/><path fill="#99C5E9" d="M9.2 3.6h.6l.2.1V4c.3 0 .4.1.5.3v.1h.1v.2l.2.3V5l.1.2.2.2v.8c-.1 0-.2 0-.3-.2v-.1c-.4-.5-1-.3-1.5-.3L9 6l-.4.8h-.1v-.4h-.1l-.1-1c0-.5 0-.8.2-1.2l.2-.2v-.2h.5" style="stroke-width:1"/><path fill="#5A5B5E" d="M13 3.9h-.2l-.1.2h-.2v.1h-.2v.1h-.1l-.8.9h-.2v1l.2.1.2.4.1.3.2.5.5 3.2H12l-.1.3-.1-1v-.3c-.2-.8-.4-2-.7-2.3L11 7v-.2l-.4-.2-.5-.1h-.3v.2h-.2V5.4c1 0 1 0 1.3.3l.2.2h.1v-.4.4-.7l.4-.3v-.2l.6-.4v-.1l.3-.3.6-.1" style="stroke-width:1"/><path fill="#A1D1F7" d="M19 1.8c.2.4.3.7.3 1.2 0 .3 0 .6-.2.9V4L19 5l-.3-.2-.5-.3-.2-.1h-.1l-.1-.1V4l-.5-.1v-.7L18 2h.1v-.1c.3-.3.7-.5 1 0" style="stroke-width:1"/><path fill="#2F2D31" d="M13.7 26.1h.1l.1.3h.1v.2l.2.2.3.3.1.1h.2v-.1h.2v-.6 1.8l.1.3.1.6.1.6v.3l.2.9v.4l.1.2.2 1v.3l.1 1.1v.3c0 .2-.1.2-.2.2h-.2V34l-.1-.2v-.3l-.2-.8v-.5l-.1-.6-.1-.7-.2-1v-.7l-.2-.8v-.5l-.2-.6-.1-.1-.2-.1v-.3H14l-.3-.4z" style="stroke-width:1"/><path fill="#363538" d="M13.6 18.4v.3h.1l.2 1c.2.3.2.8.2 1.2l.2.8v1h-.1v.2l.1 1h.1l.2 1.1v.6l.2.5h-.2l-.2-.3v-.2h-.1l-.2-.3-.1-.1V25h.1l-.1-1-.2-1v-.2l-.3-.9v-.5c-.2-.5-.2-1.1-.2-1.7l.1.1.2-.1h.2v-.1z" style="stroke-width:1"/><path fill="#A3D346" d="M28.5 17.6v.3l.3.8.2.7.1.4.1.4c0 .3 0 .3.2.5v.3l.3.7.1.7.3 1-.2-.2v-.1l-.1-.1-.1-.2-.2-.4-.2-.3c0-.3-.2-.6-.3-.8l-.6-1.3-.2-.4-.2-.3v-.1l-.1-.1V19l-.1-.2c0-.4.2-.6.3-.9.2-.1.2-.3.4-.3" style="stroke-width:1"/><path fill="#3E4755" d="M16.3 12.4h.2v.1l-.1.3v1.1c.1.2.2.2.4.2l.1-.3h.1v-.2h.1c0 .6 0 1.1-.2 1.7l-.1.2v.1c-.2.2-.4.2-.5.1h-.4v-.2l-.2-.4c-.2-.5-.2-1-.2-1.6l.2-.5v-.1l.3-.4c.1-.2.2-.1.3-.1" style="stroke-width:1"/><path fill="#AC84F4" d="M3.6 34.4c.5-.1.5-.1.7.3l.2.6v1.5l-.2.3c-.2.2-.5.3-.7.1l-.4-.7V35l.3-.6zv-.1Z" style="stroke-width:1"/><path fill="#555E3C" d="m32.9 30.8.2.2v.3h.1l.3.5.1.3.3.6.4.8.3.6.1.3.2.4v.2l.3.4-.1.3-.2.2v.1c0 .3 0 .3-.2.3-.1.2-.1.3-.2.2l-.1-.3-.3-1V35l-.2-.2v-.3l-.2-.4v-.4l-.2-.6-.2-.6-.3-.9v-.2z" style="stroke-width:1"/><path fill="#DEE2D7" d="M25 34.4v.8l-.1.2-.1.3-.2.2-.1.1-.3.4-.2.1-.5.4-.6.4-.1.2-.3.2-.2.2-.4.2-.6.3h-.1l-.4.4h.7l.4-.1h.3l.6-.2.7-.1.4-.1h.4v.5H24v-.3h-.4l-.1.1h-.8l.3.1v.4h-.1v.2h-.2v-.6H22l-.1.1h-.3l-.2.1h-.5l-.6.2-.6.2v-.5.2h.1v-.6h.2v.3-.1h.2v-.1h.2l-.2.2-.1.1h.3v-.1l.4-.3.5-.3.2-.2h.2v-.2h.1l.4-.2.2-.2.5-.4.2-.1v-.2l.2-.1.4-.3c0-.3.2-.4.4-.4v-.2l.2-.3.2-.1v-.1l.2-.2.1-.3z" style="stroke-width:1"/><path fill="#475362" d="M13 7.9h.1l-.3.5-.3.7.1-.1.2-.3.2-.3c0-.2.2-.4.4-.5l.1-.1-.4.5-.2.4-.1.2v.2h-.2v.2l-.1.2v.5l.1 1v.4l.1.4v.3l.1.1v.5l.1.2v.7h.1v.4l.1.1v1.1h.2v.7l.1.8v.1l.3.9h-.2l-.2-1.5-.1-.5V15H13v-1.3l-.1-.3v-.7l-.2-.1v-.4l-.1-.6-.1-.6-.1-.2H12v.5l.1.3.1.9.1.6.1.8v.5l.2.5v.4l.1.6v.3l.1.6-.3-.6-.1-.3-.1-.3-.1-.3c-.2-.3-.2-.7-.2-1v-1.8l-.1-.5.1-1.3.2-.1h.2v-.2l-.1-1v-.3.1h.1c0-.5.3-1 .5-1.2v-.2h.2Z" style="stroke-width:1"/><path fill="#46515E" d="M9.9 18.2c.3.7.3 1.8.3 2.7v2.8L10 25v.2l-.1.7v.6l-.1.5v4.1l.2.7v.2h-.2v-.1l-.2-.7v-.4c-.2-1.2-.1-2.5 0-3.7h-.1l-.2-.4v-.6h.4v-1.6h.1v-.9c.2-.7.2-1.4.2-2v-1.4l-.2-.9v-1.1" style="stroke-width:1"/><path d="m8.9 7.7.3.3h.2v.2l.2.1v.5l-.1.5-.1 1.2v.2l-.1 3.1-.2-.5v-.7l-.2-1-.1-1.7V7.7" style="stroke-width:1;fill:#fff"/><path fill="#322E34" d="M5.3 29H6l.1.5h2.3l.1.6h-4l-.2-.1v-.4c.2-.2.3-.1.5-.1H5v-.2l.3-.4" style="stroke-width:1"/><path fill="#827399" d="M5.2 28.9H6v.4h1.3l.5.1h.4c.1 0 .2 0 .3.3v.2h.2c.5.2.5.2.6.6v.1l-.1-.2c-.1-.2-.2-.2-.3-.2h-.5v.1l.1.5h-.4c-.4 0-.4 0-.6-.3l-.4-.3.1.3v.2h-.7l-.2-.2-.3-.1-.4-.1H5l.1.1.2.3.1.1v.2a.9.9 0 0 0-.5-.4l-.3-.2-.1-.1h-.6a1 1 0 0 0-1 .5v.2l-.2.1v.4l-.1-.1c.1-.6.4-1 .7-1.2l.4-.2h.5l.1-.2v.2h4.2l-.1-.4h-.7a62 62 0 0 0-1.3 0h-.2c-.2 0-.2 0-.2-.2l-.1-.4H5v-.1Z" style="stroke-width:1"/><path fill="#E0E2DF" d="M27.5 35.6v.6c-.1.4-.4.6-.7.6h-.1l-.3.2-.5.3-.5.2H25l-.3.1-.1.1h-.3v.1l-.6.2-.5.2H23l-.3.1h-.3v-.2h.3l.7-.3.5-.2.4-.3.3-.1.3-.2h.2l.5-.3.4-.2.1-.2.3-.1.2-.2h.2l.1-.2.3-.2h.2" style="stroke-width:1"/><path fill="#D6CAC5" d="M18.7 16v.3c.3.2.4.3.6.2.2 0 .3 0 .4-.2h.2v1c0 .2-.2.4-.4.5H19c-.2 0-.4 0-.5-.2h-.2v-.2l-.2-.5v-.4l.1-.2c.2-.3.2-.4.4-.3" style="stroke-width:1"/><path fill="#A5A8B2" d="m9.5 14 .1.4v.9c0 .3.2.3.2.4v.3c0 .3 0 .3.2.5v.2l.2.3v.2l.1.4v.1l.1.2.1.2.4 1.3v.2l.3.7.1.5h.1v.4l.1.2.2.5v.4h.1l.3 1 .1.4v.6h.2v.1l.2.4v.5l.1.5.1.2v.2l.1.2v.4l.1.3.1.4.1.5v.5h.1v.8l.1.3V33l-.2.8v-1l.1-.7v-3.2l-.1-.4v-.3l-.1-.4v-.6H13l-.2-.8v-.5h-.1v-.5h-.1v-.2h-.1v-.4h-.1v-.2l-.1-.4h-.1l-.1-.6v-.3H12l-.1-.5h-.1v-.3l-.2-.4v-.2l-.2-.4V21h-.1v-.2h-.1v-.4H11V20h-.1v-.5h-.2V19l-.1-.1v-.3l-.1-.1v-.2l-.2-.2V18l-.1-.5-.1-.4-.2-.4v-.1l-.1-.5v-.2h-.1v-.6h-.1V14Z" style="stroke-width:1"/><path fill="#49515C" d="M12.1 36.6h.1l.2.2.1.1.2.1h.3l-.2 1v1.2l.2.1.2-.7.2-.7v-.3h.1v-.3h.1v.4h.1l.4.1.4.2h.4l.1.1h.5v.2h-1.6V38h-.4l-.1.6-.3 1h-.4l-.1-.4v-1.8l-.7-.6v-.3h.2" style="stroke-width:1"/><path fill="#424B59" d="M21.4 12.3v.2c-.2.1-.2.2-.2.4v.8l.4-.1v-.1l.1-.3h.1v1l-.4.6h-.5v-.2c-.2-.1-.3-.4-.3-.7v-.7l.1-.6c.2-.3.5-.6.7-.3" style="stroke-width:1"/><path fill="#47515E" d="m21.2 29.8-.1 1.1-.1.4-.1.4-.1.6-.1.2v.1l-.2.4v.2l-.5 1.2v.1l-.3.5c-.3.6-.6 1-1 1.4v.5h-.1v-.1l-.3.2c0 .2-.2.2-.3.2v.2l-.2-.2V37h.2v-.1l.3-.2v-.3l.2-.1v-.1l.4-.4.1-.1v-.1l.1-.1.3-.5.1-.3c.3-.5.6-1.1.7-1.7.2-.2.3-.6.3-1l.2-.5.1-.4.1-.3v-.3z" style="stroke-width:1"/><path fill="#5A626E" d="m20.2 6.7.4.3v-.2c1 0 1 0 1.4.5h.1v.1h.2v.3l.3.3.2.3.1.5.1.2v.2l.2.3v.3h.1l.1.9h.1v3.6h-.1V11l-.1-.5V10H23v-.3l-.1-.2v-.3h-.1V9h-.1l-.1-.2-.3-.5v-.1l-.1-.2-.1-.1-.2-.2c-.5-.7-1.1-.6-1.7-.5v.1h-.1v-.6" style="stroke-width:1"/><path fill="#E1E1E1" d="m10.2 34 .2.3v.2l.1.2.1.3.3.4v.2l.1.1.1.5-.2.1H10V36h-.6v-.5c0-.2 0-.1.1-.1h.5v-.2c.2-.4.2-.8.2-1.3" style="stroke-width:1"/><path fill="#6E6B74" d="M6.5 34.8h.1v1h2.7v.3h.6l.2.1h.1v1.5H10v.1h-.4c-.2 0-.2 0-.3.2v.2c-.2.2-.3.2-.5.2v-.1c.3 0 .3 0 .4-.2l.1-.3h.6v-1.5h-.5v1-1.4H6.5c.1.7.2 1.4.5 2l.2.2.6.2v.4-.1c0-.2-.2-.2-.3-.2H5l.2-.6v-.2h.1l-.1.5v.2h2v-.1c-.2-.1-.3-.3-.4-.6v-.1l-.2-.6v-2.1" style="stroke-width:1"/><path fill="#65707D" d="M9.4 3.2c.3 0 .5 0 .8.2v.2c.4 0 .6.5.8 1V5h.1v-.1h.2l.1-.1-.2.2H11v.3l-.2-.4-.1-.3v-.2h-.2v-.2l-.2-.2-.3-.1v-.2h-.7c-.3 0-.3 0-.6.3h-.1c-.2.3-.2.6-.3 1v1.1l.1.1.1.4V7l-.1-.2-.2-.5V5.2c0-.4 0-.9.2-1.3.3-.5.6-.7 1-.7" style="stroke-width:1"/><path fill="#434E5B" d="m9 7.4.2.2c.3 0 .3 0 .4.3q0 .3.3.3l.1.1h.2v.3h-.4V9l-.2.4v5.4h-.1c-.2-.6-.2-1.3-.2-2V12l.1-2.6v-.2l.1-.6h.1v-.4h-.2V8L9 7.9l-.2-.2v-.3Z" style="stroke-width:1"/><path fill="#46515F" d="m15.6 7 .4.1v.2c.2 0 .3.1.4.3l.2.4v.2l-.4-.4c-.3-.4-.7-.5-1-.5V7c-.6 0-.6 0-1.2.4h-.2l-.4.5-.2.2c-.2.1-.3.4-.4.7l-.2.3V9v.2h-.1L13 8h.1v-.4l.4-.2v-.1l.2-.1V7c.6-.4 1.3-.4 1.9-.1" style="stroke-width:1"/><path fill="#E3E1E5" d="M9.4 32.4c.4 0 .4 0 .5.2V35h-.5z" style="stroke-width:1"/><path fill="#80888D" d="m13.6 18.1.3.1v.2h.2l.2.3h.2-.3l-.3-.2v-.2h-.2v.3l.1.2v.4l.1.4h.1v.4h.1v.3h.1v.7l.1.3v.3l.1 1.3V24h.1v.7h.1v.8h.2v.5c.2.1.2.2.3.4v2l.1.2v.6h.1v.6l.2.8v.6l.1.2v.2-.2l-.1-.3v-.5l-.2-.4v-.6l-.1-.6-.2-1v-1.5.6-.3l-.1-.4-.2-.1v-.1h-.1V26h.2l-.1-.1-.1-.9-.1-.4-.1-.6v-.4l-.1-.2-.1-.6v-1.9l-.1-.7-.1-.3v-.2h-.2v-1h-.1v-.6" style="stroke-width:1"/><path fill="#D9D2B9" d="M14 25v.1l.1.2.2.3v.2l.3.3v.2h.2l.2.2v.5c-.1.2-.1.3-.3.3l-.2-.2h-.1l-.3-.3-.1-.2v-.3h-.2V25z" style="stroke-width:1"/><path fill="#434343" d="M5.3 29H6l.1.5h2.3v.3H7.3l-1.5-.2H4.5v.2h-.2l.2-.3H5v-.2l.3-.4" style="stroke-width:1"/><path fill="#657484" d="M20 8v.2h-.2v1l-.1.7v.7l.2 1.9v.4h.1v.6l.1.4.1.2.2 1v.4h.1v.1l.1.2.4.9v.1h.1-.2v-.2l-.2-.3v.5c-.1-.4-.3-.8-.3-1.3v-.2h-.1l-.3-1.5V13h-.1v-.7h-.1V12l-.1-.3v-.2l-.1-.2v-3l.1-.3v.4h.1v-.2z" style="stroke-width:1"/><path fill="#4A5664" d="M9.9 18.2c.3.7.3 1.8.3 2.7v2.8L10 25v.2l-.1.7-.1 1.2v-2l.1-.2v-.7.1c0 .5 0 .7-.2 1.1v-1h.1v-.8c.2-.7.2-1.4.2-2v-1.4l-.2-.9v-1.1" style="stroke-width:1"/><path fill="#DAD2B9" d="M13.3 36.7c.1 0 .2 0 .3.2v.2h-.1v.4l-.2.6-.1.6-.2.6-.3-.2v-.7l.1-.7h.1v-.4l.2-.5z" style="stroke-width:1"/><path fill="#CDDEAA" d="M29.1 27.6v.7-.6h-3.3v1.6l-.1.9v.2c0 .2 0 .2-.2.3v.4l-.2.5v.1l-.4 1 .2-.6.3-1v-.4h-.1v-.6h.3v.1-.5h-.1V29c0-.3 0-.6.2-.8v-.6h3.5" style="stroke-width:1"/><path fill="#9784BB" d="M5.6 31.1h1v.1h-1l.2.2v.3H6v.2l.2.5.1.4v.1l.2.6v.4l.1.2v.5l.1.6v.5h2.6v.3h.4l.5.2h-.4l-.2-.1h-.3v-.2H8.2l-1.6-.1v-1l-.5-2-.2-.9v-.2h-.1v-.1h-.1l-.2-.3v-.2Z" style="stroke-width:1"/><path fill="#4D5663" d="M13 7.9h.1l-.3.5-.3.7.1-.1.2-.3.2-.3c0-.2.2-.4.4-.5l.1-.1-.4.5-.2.4-.1.2v.2h-.2v.2l-.1.2v.5l.1 1v.4l.1.4v.3l.1.1v.5l.1.2v.7h.1v.4l.1.1v1.1h.2v.7l.1.8v.1l.3.9h-.2l-.2-1.5-.1-.5V15H13v-1.3l-.1-.3v-.7l-.2-.1v-.4l-.1-.6-.1-.7-.1-.6v-.2l-.1-.7v-.3.1h.1c0-.5.3-1 .5-1.2v-.2h.2Z" style="stroke-width:1"/><path fill="#323034" d="M4.8 30.2h1l.3.2h.2l.2.3h.1v.4h-.9l-.4-.2-.2-.3v-.1l-.3-.2Z" style="stroke-width:1"/><path fill="#CED0C9" d="M24 38.3h.3v.5H24v-.3h-.4l-.1.1h-.8l.3.1v.4h-.1v.2h-.2v-.6H22l-.1.1h-.3l-.2.1h-.5l-.6.2-.6.2v-.5.2h.1v-.6h.2v.3-.1h.2v-.1h.2l-.2.2-.1.1h.3l.4-.1h1.4l.6-.2.7-.1.6-.1" style="stroke-width:1"/><path fill="#596674" d="M14.7 6.8h.4l.6.1V7c.4 0 .8.4 1 1h.1l.2.5.1.1.1.5h.1l.2.8v.3l.2.4v.7h.1v.7-.5.4h-.1v-.1l-.2-1.3v-.4h-.1l-.2-.6-.4-.8-.1-.2v-.2h-.1l-.2-.3.2.2c0-.3 0-.5-.2-.6a.7.7 0 0 0-.4-.3V7h-.4l-.8-.1h-.5z" style="stroke-width:1"/><path fill="#F1F1F2" d="M12 11.6h.2v.6l.1.3v.6l.2 1v.4l.2.5v1.1-.4h-.1v-.3l-.2-.3-.2-1-.1-1.8v-.7" style="stroke-width:1"/><path fill="#5E6746" d="M36 20.7v.4l-.1.1v.1l-.1.2-.3.4-.1.3-.3.7-.4.7-.3.8-.2.3-.2.5-.2.6v.7H37v-1 1.2h-3.2l-.1-.2-.1-.6v-.2l.1-.4.3-.7h.1l.2-.5.2-.3.3-.8.4-.8z" style="stroke-width:1"/><path fill="#687153" d="M28 37.7v.1h-.6l-.2.1h-.4l-.4.2h-.8l-.4.1-1 .2h-.8l-.6.2h-1l.2-.1h.3v-.1h.3l.4-.2.6-.1-.5.2h1.5V38h.9l.2-.2H27v-.1z" style="stroke-width:1"/><path fill="#4D5662" d="m23 9 .2.5v.3h.1l.1.9h.1v3.6h-.1V11l-.1-.5V10H23v-.5l-.1-.3V9Z" style="stroke-width:1"/><path fill="#495361" d="M10.2 33h.1v.2l.4 1.1v.4h.1v.2h.2l.1.5h.1v.2l.2.3v.1h-.3l-.2-.4v-.1l-.2-.3v-.1l-.1-.3-.1-.1-.1-.5h-.1V33Z" style="stroke-width:1"/><path fill="#556373" d="M18.6 1.3h.1c.3 0 .3 0 .5.3v.1l.1.8h.1v.9h-.1V2.3h-.1l-.1-.4-.3-.2c-.4 0-.4 0-.6.2H18V2l-.1.2-.1.2h-.1v-.2l-.4.6v-.3l.2-.3.1-.1c0-.2.1-.2.3-.2v-.3h.2l.1-.1z" style="stroke-width:1"/><path fill="#858C76" d="M26 25.2V27h3.2v-.6.8H26z" style="stroke-width:1"/><path fill="#5C626A" d="m21.7 28 .2.4c.1.2.1.5 0 .8v.3h-.3l-.3-.2v-.7h.1v-.4h.3z" style="stroke-width:1"/><path fill="#676F79" d="M23.4 11.3c.1.4 0 1.2 0 1.6v1.4l-.1 1v.1l-.1.2v.1l-.2.3v.2l-.5 1 .1-.4-.3.1.2-.2.2-.4.1-.3c.4-.9.6-2.1.6-3.3z" style="stroke-width:1"/><path fill="#495360" d="M12.1 36.6h.1l.2.2.1.1.2.1h.3l-.2 1v1.2h-.1v-1 1.3l-.1-.3v-1.6l-.7-.6v-.3h.2" style="stroke-width:1"/><path fill="#807E81" d="m6.7 36.6.1.5.4 1h.1l.6.2v.4-.1c0-.2-.2-.2-.3-.2H5l.2-.6v-.2h.1l-.1.5v.2h2v-.1c-.2-.1-.3-.3-.4-.6v-.1l-.1-.4z" style="stroke-width:1"/><path fill="#B2B6AA" d="m34.4 17.5.3.4-1 1.9-.4 1-.4.8-.2.3-.2.5v.1l-.4.4v-.1h-.3l-.1-.3.6.2v-.3l.1-.2.1-.2v-.2l.3-.4.2-.3.3-.6.4-.8.3-.7.1-.3.2-.4v-.1l.1-.1v-.2h.2z" style="stroke-width:1"/><path fill="#444345" d="M8.4 30.2h.4c.2 0 .3 0 .4.2l.1.5v.2H9l-.3-.1-.1-.3-.1-.1v-.2l-.1-.1z" style="stroke-width:1"/><path fill="#F8F8F8" d="m18.6 18 .6.1v1.1h-.7v-1.1" style="stroke-width:1"/><path fill="#868587" d="m35.4 17.5-1.2 2.7-.6 1.2-.5 1-.3.6-.2.5-.1.2-.1.3c-.2.3-.3.2-.4.2l-.1-.1h-.7c-.2.1-.4.2-.5.5h-.1v.2l-.2.1v.1l-.1.1c0-.2 0-.3.2-.5v-.2h.1l.2-.2.1-.2h1.4v-.1l.1-.2.1-.2.1-.2.3-.5.2-.6.5-1 .6-1.2z" style="stroke-width:1"/><path fill="#B9C9A5" d="M31.5 15.7v6.8l-.4.1-.2.2-.2.2h-.2v-.2h.4v-.2h.1v-.1h.6v-6.7c-.8 0-.8 0-1.2.3H30v.1h-.2v-.1h.3v-.2h.2v-.1h1.1" style="stroke-width:1"/><path fill="#888" d="m19.5 38.4.3.8-.3.1h-4.1v-.2h4.3v-.3l-.2.1z" style="stroke-width:1"/><path fill="#A585DF" d="M7.3 30.1h.8l.2.3h.1v.1l.1.1v.2h-.4c-.4 0-.4 0-.6-.3v-.1l-.2-.1z" style="stroke-width:1"/><path fill="#CDCECC" d="m20.4 39.1-.2.1H20v.1h-.2l-.1.1h-4.3 2.4l.7-.1h.8c.2 0 .4 0 .6-.2z" style="stroke-width:1"/><path fill="#3F4956" d="M13.7 37.6h.2l.7.3h.3l.1.1h.5v.2H14V38h-.7c0-.3.1-.4.3-.4" style="stroke-width:1"/><path fill="#4E4D50" d="M35.5 14.4v.5l-.1 1.6v.8h.1l-.1.6-.2.3-.1.2-.3.6-.2.4-.5 1.1-.5 1.1-.5 1c0 .2-.2.4-.3.5l-.2.6-.1.2-.1.3h-.1l-.1.2-.1-.2.3-.3v-.2l.2-.2v-.2l.3-.5.2-.4.5-1 .5-1.1.5-1 .2-.5.3-.5v-.2l.2-.2v-.1l.1-.6v-2.5z" style="stroke-width:1"/><path fill="#525E6B" d="M8.7 3.6V4l-.1.2c-.2.2-.2.5-.3.8v1.3l.1.1.1.4V7l-.1-.2-.2-.5V5.2c0-.5 0-.8.2-1.2v-.1l.1-.1z" style="stroke-width:1"/><path fill="#6C5491" d="M7 30.2c.2 0 .3 0 .5.2v.1c.3.3.7.3 1 .3v-.1l.2.1v.3H7.6v-.4l-.2-.2-.2-.2v-.2Z" style="stroke-width:1"/><path fill="#475260" d="m20 6.2.2.4.3.2h.8l.1.1h-1.1v-.1.5-.1h.3l-.2.2-.4.4-.2.4v.2h-.1c0-.4 0-.6.2-.9v-.2l.3-.2-.2-.4z" style="stroke-width:1"/><path fill="#D7CFB6" d="M18.6 36.8v1h-.4l-.1-.2v-.4l.2-.2.1-.2z" style="stroke-width:1"/><path fill="#80A05B" d="m22.5 38.2.2.1-.2.1h-.3l-.1.1h-.4v.2h.2l-.4.1h-.8c.2-.3.5-.4.7-.5h.1v.1h.2l.3-.1.2-.1z" style="stroke-width:1"/><path fill="#78838C" d="M13 3.9h-.2l-.1.2h-.2v.1h-.2v.1h-.1l-.8.9h-.2v1l.2.1.2.4.1.3.2.5c.3.4.3 1 .4 1.4v.3a4 4 0 0 1-.2-1l-.1-.3v-.1l-.2-.4v-.2l-.2-.2-.2-.4v-.1c-.2 0-.2-.2-.3-.4v-.5l.2-.5.2-.1v-.2l.6-.4v-.1l.3-.3z" style="stroke-width:1"/><path fill="#A181DD" d="M6 30.1h.6c.2 0 .4 0 .6.3v.3h-.4c-.3 0-.5 0-.7-.3V30" style="stroke-width:1"/><path fill="#8E8E8F" d="m12.5 10.6.1.5v.2l.1.9.1.1v.5l.1.2v.7h.1v.4l.1.1v1.1h.2v.7l.1.8v.1l.3.9h-.2l-.2-1.5-.1-.5V15H13v-1.3l-.1-.2-.1-.8v-.5h-.1v-.5l-.1-.6-.1-.3z" style="stroke-width:1"/><path fill="#48515E" d="m20.2 6.7.4.3v-.2c.8 0 .8 0 1.1.2v.1l.2.1v.1h-.5c-.4-.2-.7-.2-1.1-.1v.1h-.1z" style="stroke-width:1"/><path fill="#747B61" d="M37 25.5v1.2h-3.2l-.1-.2v-.6.6H37z" style="stroke-width:1"/><path fill="#727272" d="M4.3 30v.1h.3v.2l.4.1v.1l.2.2.1.1v.2a.9.9 0 0 0-.5-.4l-.3-.2-.1-.1h-.6a1 1 0 0 0-1 .5v.2l-.2.1v.4l-.1-.1c.1-.6.4-1 .7-1.2l.4-.2z" style="stroke-width:1"/><path fill="#868686" d="M5.2 28.9H6v.4h1.3l.5.1h.4c.1 0 .2 0 .3.3v.2l.5.2h-.5v-.3c0-.2-.1-.2-.3-.2h-2c-.2 0-.2 0-.2-.2l-.1-.4H5v-.1Z" style="stroke-width:1"/><path fill="#6F8DA7" d="M14.7 6.8h.4l.6.1V7c.4 0 .8.4 1 1h.1l.2.5.1.2v.2l-.3-.5c0 .2.1.5.3.6v.2L17 9l-.1-.1v-.1l-.2-.3v-.2h-.1l-.2-.3.2.2c0-.3 0-.5-.2-.6a.7.7 0 0 0-.4-.3V7h-.4l-.8-.1h-.5z" style="stroke-width:1"/><path fill="#6D757E" d="M14 3.2h.4l1 .1h-1.2l-.4.1h-.1l-.8.2h-.3l.2-.2h.2l.1-.1c.3-.2.7-.1 1-.1" style="stroke-width:1"/><path fill="#A8C876" d="M19.8 38.4h.2v.3-.1h.2v-.1h.2l-.2.2-.1.1h.3l.4-.1.2.1v.1l-.4.1-.4.1H20l-.2.1h-.2v-.4.2h.1v-.6" style="stroke-width:1"/><path fill="#687B8E" d="M15.7 3.4c.3 0 .7 0 1 .2h.4v.1h-.9.3l.1.2h-.4c-.8-.4-1.8-.2-2.8-.2v-.1h2.7v-.1h-.4Z" style="stroke-width:1"/><path fill="#515D6C" d="M19 4.9V5h.1l.3.2v.2l.1.1.4.4.2.3h-.2v.2l-.4-.5-.2-.2v-.2l-.3-.1v-.2h-.1V5h.1Z" style="stroke-width:1"/><path fill="#987BCB" d="M5.6 31.1h1v.1h-1l.2.2v.3H6v.2l.2.4v.4l.1.6h.1v.6h.1v.8-.6L6 32.8l-.2-.9v-.2h-.1v-.1h-.1l-.2-.3v-.2Z" style="stroke-width:1"/><path fill="#5C6674" d="M20 16.3h.1v1l-.2.3v.1c0 .2-.2.2-.3.3l-.3.2V18a2 2 0 0 1-.8-.3v-.2l.2.2c.3.1.7.2 1-.1l.2-.4v-.8.2h.1v.6z" style="stroke-width:1"/><path fill="#8AB0D1" d="M21 17.3h.1l.8.2v2.7l-.1 2v-4.4h-.2v-.2h-.4v-.1l-.1-.2Z" style="stroke-width:1"/><path fill="#7D846B" d="M28 37.7v.1h-.6l-.2.1h-.4l-.4.2h-.8l-.4.1-.7.1h.1V38h.9l.2-.2H27v-.1z" style="stroke-width:1"/><path fill="#656D74" d="M13.7 26.1h.1l.1.3h.1v.2l.2.2.3.3.1.1.3-.1v.3h-.4v.2l.2 1-.1-.3v-.5l-.2-.5-.3-.3v-.2H14l-.3-.4z" style="stroke-width:1"/><path fill="#7B8269" d="m27.6 19 .1.3.3.7h.1l.2.5.1.3.3.5.4.8.2.5.1.3.2.4.3.4v.3l-.1.3-.2.4v-.1l.1-.4.1-.3-.2-.6v-.2l-.3-.4-.1-.3-.3-.6-.4-.8-.3-.6-.2-.3-.2-.4-.3-.4-.1.4-.2.2c0-.3.2-.8.4-.8" style="stroke-width:1"/><path fill="#B0B4A7" d="M32.8 30.7c.2 0 .3.2.4.4v.2l.3.4.1.3.3.7.8 1.4.1.3.2.4v.2h.1v.2l.1.3-.1.3v.1H35l.1-.3c0-.4 0-.6-.2-.8v-.2l-.3-.4-.1-.3-.3-.6-.4-.8a16 16 0 0 0-.4-.9l-.2-.3-.1-.2v-.2l-.2-.1v.6l-.1-.5z" style="stroke-width:1"/><path fill="#95999F" d="M9.6 26h.2v.1h-.2l-.1.1v.3-.1h.2v3.5l-.1-1.7v-1.1l-.2-.4v-.6h.2" style="stroke-width:1"/><path fill="#5B6672" d="M13.6 37.2v.4h.1l.2.1h-.3l-.2.2h.3l.2.1h.2v.1h-.5l-.1.6-.3 1h-.4v-.1h.2l.2-.2.1-.5v-.4h.1v-.2.4h-.1V38l.1-.2.2-.4v-.3Z" style="stroke-width:1"/><path fill="#5D5B5E" d="M4.3 29.8v.2H6v.3l.3.2H6c-.1-.2-.2-.2-.4-.2H5l.1.1.1.3-.1-.2H5l-.3-.2v-.2h-.3v-.3Z" style="stroke-width:1"/><path fill="#CACCCE" d="M13.3 3.1h1.8l.2.1h.7v.2h.5l.2.1h.1l.3.1v-.3.4h-.5l-.6-.3h-.6l-1.3-.1h-.8V3Z" style="stroke-width:1"/><path fill="#D2CBB3" d="m21.5 28.2.3.3v.7h-.4v-.7z" style="stroke-width:1"/><path fill="#302D32" d="M5.5 29h.3l.1.2v.3h-.8v-.3c.1-.3.3-.2.4-.2" style="stroke-width:1"/><path fill="#495361" d="M17.5 16v.5l-.1.1v.2l-.1.1-.2.4v.1H17v.1l-.1.3h-.1v.1l-.1-.1v-.3l.2-.2.2-.5.2-.6c0-.2.1-.3.2-.3" style="stroke-width:1"/><path fill="#858B93" d="M22 21.7v1.7l-.1 1.6v.2l-.1.4v.1l-.1 1.3v-2.3l.1-.8V22h.1v-.3Z" style="stroke-width:1"/><path fill="#798166" d="m31.7 15.7.5.1.3.2h-.8v6.5h.2v.1h-.2z" style="stroke-width:1"/><path fill="#363336" d="M10 36.3h.2v1.3H10z" style="stroke-width:1"/><path fill="#9EA392" d="M29 33v.4l-.1.1-.1.1-.1.3v.1l-.2.4-.1.1-.1.2-.1.3v.1l-.2.2v.2l-.1.1h-.1v.2l-.3.3v-.5h-.2l.3-.5.2-.3v.1l-.3.5.1.2v.3l.3-.5v-.1l.1-.2.2-.3.2-.4.2-.5.4-1" style="stroke-width:1"/><path fill="#4B4B4B" d="M15 26.5v1.8l.1.3.1.6.1.6v.3l.1.6.1.3v.4l-.2-1v-.2l-.2-1.2v-.7L15 28l-.1-.3-.4-.2h.3l.1-.2v-.1h.1v-.6Z" style="stroke-width:1"/><path fill="#A2BC86" d="M31.4 15.8v6.7l-.3.1-.2.2-.2.2h-.2v-.2h.4v-.2h.1v-.1h.6v-6.7Z" style="stroke-width:1"/><path fill="#7C848E" d="M18.6 1.3h.1c.2 0 .3 0 .4.2v.1c-.4-.1-.6-.3-1 0V2l-.2.2-.1.2h-.1v-.2l-.4.6v-.3l.2-.3.1-.1c0-.2.1-.2.3-.2v-.3h.2l.1-.1z" style="stroke-width:1"/><path fill="#9C82DF" d="M10 30.8v.8l.1.7v.3h.1l.1.5v.2h.1l.1.5.1.2v.2l.1.1v.1l-.3-.9v-.2l-.1-.3v.6H10v-1.4l-.2-.2v-.1h.2l-.2-1.1" style="stroke-width:1"/><path fill="#575558" d="M9.4 36.2h.5v1h.1v.4h.2v.1H10v.1h-.4c-.2 0-.2 0-.3.2v.2c-.2.2-.3.2-.5.2v-.1c.3 0 .3 0 .4-.2l.1-.3h.6v-1.5h-.5v.8-1Z" style="stroke-width:1"/><path fill="#4A5462" d="m9 7.4.2.2c.2 0 .3 0 .4.4l.2.2h-.2v.5-.4h-.2V8L9 7.9l-.2-.2v-.3Z" style="stroke-width:1"/><path fill="#8999A5" d="M15 27.4v.6h.2v1.2h.1v.6l.2.8v.6l.1.2v.2-.2l-.1-.3v-.5l-.2-.4v-.6l-.1-.6z" style="stroke-width:1"/><path fill="#85AA5D" d="M31.4 15.8v6.7-6.6c-.4-.1-.4-.1-.7.1h-.3l.5-.2h.6" style="stroke-width:1"/><path fill="#4F5A61" d="M18.6 18h.7v1.3h-.8v-.8.5l.1.1h.5l.1-.6V18z" style="stroke-width:1"/><path fill="#97BAD6" d="m13.6 18.1.3.1v.2h.2l.2.3h.2-.3l-.3-.2v-.2h-.2v.3l.1.2v.4l.1.4h.1v.4h.1v.3h.1v.7-.7H14l-.1-.6h-.2v-1h-.1z" style="stroke-width:1"/><path fill="#3C4754" d="M17.8 12v3l-.1.5v.2h-.2v-.5l.1-.4.1-.4V12" style="stroke-width:1"/><path fill="#655F6C" d="m5.2 30.7.2.3h1.2l.1.2-1.1.1.1.3v.2h.1v.2H6l.1.4-.2-.4-.2-.3v-.2l-.2-.1-.3-.4h.2l-.1-.2Z" style="stroke-width:1"/><path fill="#C3D1B5" d="M25 34.7v.3l-.1.4-.1.3-.2.2-.1.1-.3.4-.3.1.3-.4.1-.2.2-.1v-.1l.1-.2v-.3l.2-.1v.2l.2-.2z" style="stroke-width:1"/><path fill="#A4C1DB" d="M13.3 28.4v.5l.1.6V33l-.2.8v-.7c.2-.7.2-1.4.2-2.1v-.5l-.1-1.5z" style="stroke-width:1"/><path fill="#AAAEB2" d="M10 19.5v5h-.1v1-3.1h.1z" style="stroke-width:1"/><path fill="#A1A2A8" d="m8.9 11.6.1.5v.7l.2.5v.3-2h.1V14h-.1z" style="stroke-width:1"/><path fill="#ADB2A4" d="M33.6 25.9v.5l.1.2H37V26l.1.3v.4h-3.4l-.1-.5V26Z" style="stroke-width:1"/><path fill="#94B372" d="M37 27.1v1.7h-.1v.2l-.2 2.2v.3h-.1v.5h-.2l.1-.6h.1v-.9l.1-.4.1-.7V28l.1-.3V27" style="stroke-width:1"/><path fill="#44505E" d="M8.7 3.6V4l-.1.2q-.3.3-.3.9v1h-.1v-.7L8.3 4l.4-.5" style="stroke-width:1"/><path fill="#C6CCBE" d="m23.9 37.9-.6.3h-.2l-.3.1h-.3v-.2h.3c.1 0 .3 0 .4-.2z" style="stroke-width:1"/><path fill="#54606E" d="m17.7 2.2-.1.5c-.3.4-.3.7-.3 1.1h-.1v-.2c0-.6.2-1 .4-1.4" style="stroke-width:1"/><path fill="#8CB3D5" d="m17.7 10.8.1.2v.4l.1.2V15l-.1.6-.2.3.2-1.2c.2-.9.1-2.1 0-3v-.9Z" style="stroke-width:1"/><path fill="#5C7288" d="M16 18.5h.2q0 .3-.3.3c-.3.2-.5.2-.7.2h-.1c-.2 0-.4 0-.6-.2h1.2v-.1h.3z" style="stroke-width:1"/><path fill="#3E3746" d="M7 30.2c.2 0 .3 0 .5.2v.2l.3.3v.2h-.3v-.4l-.2-.2-.2-.2v-.2Z" style="stroke-width:1"/><path fill="#5B6166" d="M14 20.3c.2.2.2.3.2.5l.1.8v.6l.1 1.8v-.4l-.1-.2-.1-.6v-1.5l-.1-1" style="stroke-width:1"/><path fill="#CCCCCF" d="M12 11.6h.2v.6l.2.4v.4l-.2-.6v2-.8l-.1-1.3v-.7" style="stroke-width:1"/><path fill="#545254" d="M5.3 29H6v.2h-.7v.2h.1v.2h-.8v.2h-.2l.2-.3H5v-.2l.3-.4" style="stroke-width:1"/><path fill="#404B59" d="M17.2 3.6v.2l.1.1h.2v.2H17l-.3-.2-.1-.1h-.4v-.2h.5l.2.1h.2v-.1Z" style="stroke-width:1"/><path fill="#516376" d="M19 3v.3h-.2v.5h.1V4h-.3l-.1.2v-.5l.1-.1v-.2l.1-.1V3z" style="stroke-width:1"/><path fill="#7B7B7B" d="M12.3 9.2v.1l.1.5v.8l.1.2v.5l.2.4v1.1-.5l-.1-.6-.1-.7-.1-.6v-.2l-.1-.7z" style="stroke-width:1"/><path fill="#7DA1BE" d="M9.8 8.6h.3zl-.1 1.2-.1.5V14h-.1V9.7l.2-.8v-.4" style="stroke-width:1"/><path fill="#A0BB82" d="m26.8 32.3-.3.6-.3.4-.1.2-.3.3-.2.3-.3.4v.2c0-.5.2-.8.4-1l.2-.2v-.2h.1l.4-.4.1-.1z" style="stroke-width:1"/><path fill="#3E454F" d="m14.1 24.9.2.4v.2l.3.3v-.6.4l.2.5h-.2l-.2-.3v-.2h-.1l-.2-.3-.1-.1V25h.1Z" style="stroke-width:1"/><path fill="#73879B" d="M20 8v.2h-.2v1l-.1.7v.6-1.9l-.2.6v1.3-2.2l.2-.3v.4h.1v-.2z" style="stroke-width:1"/><path fill="#454248" d="M6.7 35.9h2.6v.3-.2H6.7v.8-1" style="stroke-width:1"/><path fill="#7DA0BE" d="M13 3.9h-.2l-.1.2h-.2v.1h-.2v.1h-.1l-.8.9h-.2v.4-.4c.1-.2.2-.2.3-.2v-.2l.6-.4v-.1l.3-.3z" style="stroke-width:1"/><path fill="#80A4C1" d="m18 17.1.2.5c0 .2.2.2.4.3v1.2-.6h-.1v.8h.6v.1h-.6V18l-.3-.3-.2-.3V17Z" style="stroke-width:1"/><path fill="#D1DBC1" d="m21.8 38.1-.4.2-.3.2-.2.2h-.5l.4-.3.1-.1h.6V38h.3" style="stroke-width:1"/><path fill="#6F869B" d="M16 37v.9a3 3 0 0 1-1.5 0h-.1l-.3-.2h1.8V37" style="stroke-width:1"/><path fill="#4B4B4B" d="M6 29.3v.2h2.2-3H6z" style="stroke-width:1"/><path fill="#8CA2B4" d="m14.2 21.1.1.1v.3l.1 1.3V24h.1v.7h.1v.5-.7h-.1v-.2l-.1-.1v-2l-.2-1" style="stroke-width:1"/><path fill="#3E4855" d="m20.2 6.7.4.3v-.2h.7V7h-.5l-.1.1-.2.1h-.2v.1h-.1z" style="stroke-width:1"/><path fill="#3D4754" d="M19.7 8.5V11h-.1V8.5" style="stroke-width:1"/><path fill="#87A1B7" d="M11 5.3v.2l.1.6c-.1 0-.2 0-.3-.2v-.1c-.1-.2-.2-.2-.4-.2l-.7-.1v-.2c.7 0 .7 0 1 .3h.2v.2-.5Z" style="stroke-width:1"/><path fill="#6F7277" d="M9.5 5.5c1 0 1 0 1.3.3h-.3c-.3-.2-.6-.2-1-.3v1h.2v.3h-.2V5.4" style="stroke-width:1"/><path fill="#838A73" d="m25.8 37.3-.1.1h-.2v.1h-.2v.1l-.4.1-.3.1h-.4v.2h-.5c.2-.2.4-.2.6-.2l.3-.2h.3l.5-.2c.3-.2.3-.2.4 0" style="stroke-width:1"/><path fill="#AEB2A5" d="M24 38.3h.3v.5H24v-.3h-1 .3l.8-.2" style="stroke-width:1"/><path fill="#8570BA" d="M4 32.3c.1 0 .3 0 .4.2l.1.1.3.2v.1h-.2v-.1h-.1v-.2H3.2c.2-.3.4-.3.7-.3" style="stroke-width:1"/><path fill="#AEAEAE" d="m12.5 10.6.1.5v.2l.1.9.1.1v.5l.1.2v.7h.1v.4l.1.1v1.1-.8l-.1-.7-.1-.2-.1-.8v-.5h-.1v-.6l-.1-.6-.1-.3z" style="stroke-width:1"/><path fill="#A9D554" d="M25.6 28.5h.1l-.1 1.1h-.1v-.9z" style="stroke-width:1"/><path fill="#556373" d="m19.7 15.3.1.3v.1l.2.4v1.1-.8h-.1v-.1h-.1v-1zv-.1Z" style="stroke-width:1"/><path fill="#C9DEA1" d="m29.8 38 .5.1h.1l.2.1v.2H32c-.3.2-.6.1-1 .1h-.2l-.1-.1h-.2l-.6-.3v-.2Z" style="stroke-width:1"/><path fill="#54677C" d="M9.5 10.5v2.8h-.1v-2.8" style="stroke-width:1"/><path fill="#697889" d="M16.6 8c.3 0 .4.5.6.8V9l-.4-.5c0 .2.1.5.3.6v.2L17 9l-.1-.1v-.1l-.2-.3v-.2h-.1l-.2-.3.2.2v-.3Z" style="stroke-width:1"/><path fill="#777F64" d="M22.7 38.4h.3v.1c-.4.2-.9.2-1.3.2v-.2h.5l.2-.1z" style="stroke-width:1"/><path fill="#ABA8AC" d="M11 36h.3v.2c-.2.3-.5.3-.7.3h-.2l-.2-.1v-.1h.6l.3-.1v-.3Z" style="stroke-width:1"/><path fill="#D4CCE2" d="M10.2 34v1.2c0 .2 0 .2-.2.3-.2.2-.4.1-.6.1v.4h.8v.2H10V36h-.6v-.5c0-.2 0-.1.1-.1h.5v-.2c.2-.4.2-.8.2-1.3" style="stroke-width:1"/><path fill="#8AB0D1" d="M21.7 22.2a27 27 0 0 1 0 2.7l-.1.3v1.3h-.1V25l.2-1.5z" style="stroke-width:1"/><path fill="#91B16E" d="M28.6 30v.1c0 .2 0 .2-.2.2v.3h-.1l-.3.5-.2.2-.2.3-.5.6H27l.4-.5.2-.3.1-.3.2-.1.2-.4h.1l.2-.2c0-.2.1-.3.2-.3" style="stroke-width:1"/><path fill="#81A5C3" d="M10 26.5v1.3l-.1.2v2.8-4.3" style="stroke-width:1"/><path fill="#4B5766" d="M16.8 8.4c.2 0 .3.3.4.6v.4l.1.1h-.1l-.2-.4-.1-.3-.1-.2z" style="stroke-width:1"/><path fill="#596777" d="M17.7 14v1.2l-.1.5v-.2c0 .4 0 1-.3 1.3l.1-.4v-.7l.2-.8v-1" style="stroke-width:1"/><path fill="#B6B4B7" d="m11.3 37.2-.5.2h-.2c-.2 0-.2 0-.3.2v.1c0 .2-.1.2-.2.2h-.8.7v-.2c.2 0 .3-.1.3-.4h.4l.4-.1z" style="stroke-width:1"/><path fill="#9A999A" d="M4.2 30v.1h-.8v.2h-.1l-.2.1a1 1 0 0 0-.4.6v.1l-.2.4v-.1c.1-.6.4-1 .7-1.2.3-.3.7-.2 1-.2" style="stroke-width:1"/><path fill="#5A6B7D" d="M20 16.3h.1v1l-.2.3v.3h-.2l.2-.2v-.1h-.4.1v-.1l.2-.3v-.8.2h.1v.6-.9Zm0 1-.1.2v-.2Z" style="stroke-width:1"/><path fill="#99B679" d="M24.7 37.3h-.2l-.3.2-.3.2-.4.1-.3.1-.4.2h.2v-.2c.2 0 .3 0 .4-.2l.3-.1h.4v-.2h.2v-.1z" style="stroke-width:1"/><path fill="#D4E0BD" d="M32.7 31v.2h-.4v.2l-.3.2h-.6l-.6-.1h1.1l.4-.2v-.1l.1-.1h.3" style="stroke-width:1"/><path fill="#747A84" d="M22 18.6v3.2z" style="stroke-width:1"/><path fill="#4F4F4F" d="M12.8 12.8c0 .3.2.6.1 1l.2.8v1l.2.4v.3l-.1-.4-.1-.5-.1-.8v-.1l-.1-.6v-.1z" style="stroke-width:1"/><path fill="#797F89" d="M17 13.6h.1c0 .6 0 1.1-.2 1.7l-.1.2v-.2l.2-.5v-1 .1c0 .3-.1.3-.2.3h-.4V14h.5v-.2h.1z" style="stroke-width:1"/><path fill="#C3DC94" d="M28.4 27.6h.7v.7-.6h-2z" style="stroke-width:1"/><path fill="#BBBEC4" d="M15.2 7.1v.2h.3H14c.2-.3.8-.2 1.1-.2" style="stroke-width:1"/><path fill="#5A5269" d="M5 34v.2l.2.5v2.1-2.1H5v-.3l-.2-.5" style="stroke-width:1"/><path fill="#797F85" d="m12.5 37.3.3.2V39h-.1v-1 1.3l-.1-.3v-1.8Z" style="stroke-width:1"/><path fill="#312E32" d="M8.7 30.7h.6v.3h-.6z" style="stroke-width:1"/><path fill="#747374" d="M37.5 18.8c-.2.5-.6.5-1 .4l-.3-.2h1.1l.2-.1" style="stroke-width:1"/><path fill="#4B5665" d="M9.7 3.4h.5v.2h.1v.3h.1l-.3-.1-.4-.3z" style="stroke-width:1"/><path fill="#7C8B96" d="m15.7 32.3.2.3v1.1l.1.3v.2l.2.1v.9-.8H16v-.1l-.1-.7-.1-.6v-.4z" style="stroke-width:1"/><path fill="#BFC1B8" d="M27.4 37.9v.1h-.7l-.1.1h-1.3.9l.4-.2z" style="stroke-width:1"/><path fill="#636B75" d="M9.4 9.9v4.4z" style="stroke-width:1"/><path fill="#535D6A" d="M20.1 7.3V8l-.2.1v.3h-.2V8h.1v-.1c0-.3.1-.4.2-.5h.1" style="stroke-width:1"/><path fill="#677483" d="m20 6.8.3.3v.2-.1h.3l-.2.2-.3.2v-.3.1l-.2.2v.3h-.2l.2-.5.3-.3-.1-.3Z" style="stroke-width:1"/><path fill="#616F7E" d="M20 13.7h.1v.2l.1.2v.2l.1.2v.4l.1.3v.3l-.2-.8v-.3l-.1-.7" style="stroke-width:1"/><path fill="#CCD0C6" d="m25.1 37.5-.3.1-.1.1h-.3v.1h-.8l.2-.2h.4l-.2.1h.6v-.2h.6" style="stroke-width:1"/><path fill="#6C6A6F" d="M8.5 29.8v.3H9c.2 0 .2 0 .4.3v.2l-.1-.2c-.1-.2-.2-.2-.3-.2h-.5v.1l.1.2c-.2 0-.3-.1-.4-.4h.4v-.3Z" style="stroke-width:1"/><path fill="#6C87A2" d="M21 17.3h.1l.8.2v2-1.9h-.4l-.4-.1v-.2Z" style="stroke-width:1"/><path fill="#C6C9CD" d="M20 12.5v1h.1v.3h.1v.3h.1v.7h.1l.1.5v.3h.1v.1-.2h-.1v-.1l-.2-.9-.1-.6H20v-1h-.2v-.4Z" style="stroke-width:1"/><path fill="#B7BAAF" d="M27.1 36h.2v.3h-.1v.2l.1-.1c0 .2 0 .2-.2.2-.1.2-.2.2-.4.2-.2.2-.2.2-.3.1l.6-.3v-.3z" style="stroke-width:1"/><path fill="#8CA4BC" d="M9.6 6.5v.3-.1h.1V7h-.2v-.2h-.2V7l-.1.1-.1.1v.2l.2.2h-.1L9 7.3v-.2l.1-.3h.1c.1-.2.2-.3.4-.3" style="stroke-width:1"/><path fill="#B1D769" d="M20.8 38v.2h-.1v.2h-.1v.1l-.2.2h-.1l-.3.2c0-.2.1-.2.3-.4v-.1l.3-.2.2-.1" style="stroke-width:1"/><path fill="#878D77" d="M28.7 37.6h.2zv.6h-.3V38h-.1v-.2l.3-.1h-.3v-.2h.4" style="stroke-width:1"/><path fill="#A283DB" d="M6.1 32.3h.1l.1.5v.1l.2.6v.4l.1.2v.5l.1.6v.5-.1c0-.9 0-.9-.2-1.7v-.6h-.1V33l-.1-.2v-.1l-.2-.3v-.2Z" style="stroke-width:1"/><path fill="#6F7680" d="M22 21.7v1.8l-.1.2v.6h-.1v.5V22h.1v-.3Z" style="stroke-width:1"/><path fill="#D4D5D1" d="m19.3 37.8.2.4v-.3l.2.1v.2h.1v.2h-.1v.4l-.1-.3-.3-.6Z" style="stroke-width:1"/><path fill="#70767E" d="M21.4 28.2h.1v1h.2l-.2.1h.4v-.9.9c0 .2-.1.2-.2.2h-.1l-.3-.2v-.7h.1z" style="stroke-width:1"/><path fill="#828892" d="M21.2 12.2h.2v.4c-.2.1-.2.2-.2.4v.8l.4-.1v.1c0 .1-.2.1-.4 0v-1.4H21h.3" style="stroke-width:1"/><path fill="#8EA9C2" d="M12.7 35.3v.3l-.4.7-.1.3h.1l.2.2-.3-.1-.1-.2v-.2h.1V36l.1-.1.4-.7" style="stroke-width:1"/><path fill="#D9E1C9" d="M32.8 38.2c-.2.3-.5.3-.8.3v.1h-1v-.1c.5 0 1 0 1.4-.3h.3" style="stroke-width:1"/><path fill="#484849" d="M4.7 30.2H6v.1l.3.2H6c-.1-.2-.2-.2-.4-.2H5l.1.1.1.3-.1-.2H5l-.2-.1v-.2Z" style="stroke-width:1"/><path fill="#9576CD" d="M7.5 30.5h.1v.1h.8v-.1l.1.1v.2h-.4c-.4 0-.4 0-.6-.3" style="stroke-width:1"/><path fill="#7EA1BF" d="M10.2 22.7V25l-.1.3v.3l-.1.8v-.8l.1-2v-.1z" style="stroke-width:1"/><path fill="#BEC1C6" d="M16 18.2h.1c-.1.2-.3.2-.5.3v.1h-.9v-.1h.5c.3 0 .3 0 .5-.2h.2v-.1Z" style="stroke-width:1"/><path fill="#465160" d="M9.6 3.3c-.2.2-.5.3-.8.3 0-.2.1-.3.2-.3z" style="stroke-width:1"/><path fill="#6E6D6F" d="m6 32.5.2.1v.5h.1v.2h.1v.6h.1v.8-.6L6 32.6z" style="stroke-width:1"/><path fill="#86A6C1" d="M9.8 6.5c.3 0 .7 0 1.1.4V7h.1v.1l.4.5h-.2v-.2l-.4-.4-.3-.2-.8-.1v-.2Z" style="stroke-width:1"/><path fill="#B7D977" d="m22 37-.1.2-.6.4v.1l-.2.1v.2h-.3l.3-.4h.2l.1-.3h.1l.4-.4h.1" style="stroke-width:1"/><path fill="#B2B6BC" d="m17.5 10.8.1.4v.2l.1 1.1V14v-2.4l-.2-.6z" style="stroke-width:1"/><path fill="#D2DBC0" d="M19.8 38.4h.2v.3-.1h.2v-.1h.2l-.3.3-.3.1v.1h-.1v-.2.2h.1z" style="stroke-width:1"/><path fill="#737D86" d="M16.7 36.8c.4 0 .7 0 1 .2h-1z" style="stroke-width:1"/><path fill="#8C829F" d="M6.3 33.1v.2h.1v.2l.1.1v.4l.1.2.1 1.6v-1h-.2v-1.2h-.1V33Z" style="stroke-width:1"/><path fill="#6F8CA6" d="m20.2 33-.2.8v.2l-.4.7-.1.3-.1.2h-.1V35l.8-1.6v-.2l.1-.3" style="stroke-width:1"/><path fill="#A19EA5" d="M13.3 29.5v3.7z" style="stroke-width:1"/><path fill="#767677" d="M30.8 30h.2l.2.1.3.1.5-.1c-.4.3-.9.3-1.2-.1" style="stroke-width:1"/><path fill="#8AB1D2" d="M14.3 6.7h1-.4l-.7.3H14l-.1.1h-.2v.2h-.1v-.1h.1v-.1h.2V7l.2-.2h.2Z" style="stroke-width:1"/><path fill="#7A9DB9" d="M8.6 4v.2c-.2.4-.2.8-.2 1.4v.6l-.1-.8A2.4 2.4 0 0 1 8.6 4" style="stroke-width:1"/><path fill="#444F5E" d="M19 4.9V5h.1c.1 0 .2.1.2.3v.1h.1v.1l-.4-.1v-.2h-.1V5h.1Z" style="stroke-width:1"/><path fill="#B0B3B7" d="M17.1 3.3v.4h-.5c-.2-.2-.5-.3-.8-.3h-.4 1.1l.2.1h.1l.3.1z" style="stroke-width:1"/><path fill="#717F8E" d="m19.3 2 .1.2v1.4l-.1.4v.2c-.1-.2-.1-.2 0-.4v-.2l-.1-1.3v1.1h.1l.1-1v-.3Z" style="stroke-width:1"/><path fill="#667381" d="M9.2 3.2h.3l.4.1h-.2v.2h-.5l.2-.1h.2H9c0-.2.1-.2.2-.2" style="stroke-width:1"/><path fill="#5B5167" d="M2.4 32.2v.6h-.1v1.7-.5h.1l-.1.6v.2h-.1v-2.2h.1v-.4" style="stroke-width:1"/><path fill="#7DA0BE" d="m10.2 32.6.1.5v.2h.1l.1.5.1.2v.2l.1.1v.1l-.3-.9v-.2l-.1-.3v.6z" style="stroke-width:1"/><path fill="#56616E" d="M21.2 29.1v.2h.1v.8l-.1.2v-.5l-.2.6v-.6z" style="stroke-width:1"/><path fill="#536679" d="M10 24.3v1.6L9.9 27v-2l.1-.2v-.6Z" style="stroke-width:1"/><path fill="#777778" d="M35.5 14.4v.5l-.1 1.6v1-2.8z" style="stroke-width:1"/><path fill="#999EAA" d="M9.3 5.5h.2l-.2.3c-.2 0-.3.2-.3.4l-.2.2-.1.3q0-.6.3-.9l.2-.2h.1z" style="stroke-width:1"/><path fill="#86ABCB" d="M17.4 3v.7l.2.1.3.2.3.2h-.4V4l-.5-.1V3l.1-.1" style="stroke-width:1"/><path fill="#A7AFBC" d="M13.3 28.4v.5l.1.6v2.8-1.5l-.1-1.8z" style="stroke-width:1"/><path fill="#9E84CC" d="M6 30.1h.8l.2.1h-.8v.2h.1-.2V30" style="stroke-width:1"/><path fill="#D5E0BE" d="M25.6 28.3h.1V30v-.3h-.2v-.1c.2-.4.2-.7.2-1.1l-.1.3z" style="stroke-width:1"/><path fill="#7F7E7F" d="M30.2 25.2v.4c-.2.6-.2 1.4-.2 2v.6-2.5h.1v-.4h.1z" style="stroke-width:1"/><path fill="#828992" d="M23.4 11.3c.1.4 0 1.2 0 1.6v1.4h-.1v-3" style="stroke-width:1"/><path fill="#5C585E" d="M5.2 37.6h.1l-.1.5v.2h1.5H5l.1-.5v-.2" style="stroke-width:1"/><path fill="#575065" d="m4 33 .3.1h-.6l-.4.1c.2-.3.4-.3.6-.3" style="stroke-width:1"/><path fill="#9DBCD8" d="M12.8 29.2h.1v3.4-3.4" style="stroke-width:1"/><path fill="#7B8389" d="M15.3 29.3v.5l.1.2v.2l.1.3v.7l.1.2v.2-.2l-.1-.3v-.5l-.2-.4z" style="stroke-width:1"/><path fill="#526477" d="M21.8 21.5v2l-.1 1v-1.4z" style="stroke-width:1"/><path fill="#959B87" d="M22.7 38.8h.3v.3h-.1v.2h-.2z" style="stroke-width:1"/><path fill="#B3D86D" d="M33.3 37.6h.2c-.1.3-.3.3-.5.5-.3.2-.5.3-.8.3v-.2h.3l.3-.1.2-.2h.2v-.1h.1z" style="stroke-width:1"/><path fill="#ACC294" d="M29.6 30c.2.2.2.2.2.5v.2l-.2.6-.1.1v.1l-.2.5h-.1v.2H29l.1-.3v-.2l.3-.5.1-.2.1-.6-.1-.2V30Z" style="stroke-width:1"/><path fill="#BFC1C4" d="M10 22.4v2.1h-.1v1-3.1Z" style="stroke-width:1"/><path fill="#7EA2BF" d="M10.3 4h.1v.2zH10v-.2H9v-.1c.4-.2.8-.1 1.3.3" style="stroke-width:1"/><path fill="#C1C3BA" d="M29.6 24.7v.5l-.1.5v.2l-.1.2v.6l-.1.4.1-1.7.1-.5v-.2Z" style="stroke-width:1"/><path fill="#7BA250" d="M21.4 38.5v.2c-.2 0-.5.2-.7.1l.4-.3z" style="stroke-width:1"/><path fill="#8D937E" d="M28 37.7v.1l-1.2.1h.1v-.1h1" style="stroke-width:1"/><path fill="#596E83" d="M21.6 24.6v2.2l-.2.1v-.8l.1-.2v-.4l.1-.4z" style="stroke-width:1"/><path fill="#4B5B6D" d="M22 17.5v2.6l-.1.2v.7-3.5" style="stroke-width:1"/><path fill="#B3B6BA" d="m23.4 10.4.1.2v.4l.1.3v2.4-2.5l-.2-.5z" style="stroke-width:1"/><path fill="#485564" d="M19.2 2h.1v.5h.1v.9h-.1V2.1Z" style="stroke-width:1"/><path fill="#A9A0B5" d="M2.2 33.4V36v-2.5" style="stroke-width:1"/><path fill="#B8CAA6" d="M36.8 29.9v.9l-.1.4v.3h-.1v.5h-.2l.1-.6h.1v-.9z" style="stroke-width:1"/><path fill="#404B59" d="M17.7 14.4v1.3h-.2z" style="stroke-width:1"/><path fill="#6C7682" d="m10.3 3.6.5.6h-.1l-.2-.2.2.4v.2-.2h-.1l-.3-.4h.1v-.3h-.1Z" style="stroke-width:1"/><path fill="#798EA2" d="m19.5 10.5.1.3v.2-.5h.1v1.3l-.1-.5v-.8Z" style="stroke-width:1"/><path fill="#C7DD9C" d="m28.5 17.6.1.5V18l-.2-.1-.4.5-.3.4c0-.4.3-.6.4-.9.2-.1.2-.3.4-.3" style="stroke-width:1"/><path fill="#C2C5CA" d="m21.3 7.2.5.2v.1q.3 0 .3.3l.2.1V8l.1.2-.2-.2-.2-.2v-.1h-.1v-.1h-.1v-.1h-.2v-.1h-.3z" style="stroke-width:1"/><path fill="#797F84" d="M14.3 22.5v1.1l.1.4v-.4l-.1-.2-.1-.6v-.3z" style="stroke-width:1"/><path fill="#737A82" d="M18.6 18h.7v1.3h-.1V18z" style="stroke-width:1"/><path fill="#6F8DA8" d="M18.6 3.6v.2h.1v-.2.1l.2.1V4h-.3l-.1.2v-.6" style="stroke-width:1"/><path fill="#7C7C7D" d="M36.9 12.9h.3-.4l-.5.1v.2c-.1 0-.3 0-.3.3h-.1c0-.2 0-.3.2-.3l.1-.2z" style="stroke-width:1"/><path fill="#BDA0F2" d="m3.3 39 .6.1h.6c-.4.3-.7.3-1 .2l-.3-.2Z" style="stroke-width:1"/><path fill="#505C6B" d="m15 31.5.2.2v.6l.1.3v.6l.1.2v.5-.1l-.2-1-.1-1.3" style="stroke-width:1"/><path fill="#6B7378" d="M13.7 26.1h.1l.1.3h.1v.4c-.1 0-.2-.1-.3-.4z" style="stroke-width:1"/><path fill="#A6B6C7" d="m12.4 24.3.2.5v.4l.1.5.1.4v-.3h-.1v-.5h-.1v-.2l-.1-.4v-.4Z" style="stroke-width:1"/><path fill="#999FA5" d="M13.4 7.9h.1l-.3.5-.3.4-.1.2v.2h-.1l.1-.4.2-.3c0-.2.2-.4.4-.5z" style="stroke-width:1"/><path fill="#C7C9C3" d="M28 37.7h.6v.1h-.2v.1h-.1v-.1h-.8.4Z" style="stroke-width:1"/><path fill="#5B6978" d="m14.9 26.2.2.2v1.4H15v-1.3.6-.3l-.1-.5z" style="stroke-width:1"/><path fill="#555E69" d="m22.6 16.8-.3.6H22h.2v-.2l-.1-.2.3-.2h.1" style="stroke-width:1"/><path fill="#88AECF" d="M18.2 4.7c.2.1.5.2.7.5v.1h.1v.2h.1l.2.2H19v-.4h-.1v-.1h-.2V5h-.4v-.2h-.1z" style="stroke-width:1"/><path fill="#5D4F76" d="m3.3 36.8.2.3c.1.2.3.1.4.1h.3c-.2.3-.4.2-.6.2v-.1l-.2-.3z" style="stroke-width:1"/><path fill="#B2B6AA" d="M26.3 37c-.3.3-.7.3-1 .5l.2-.2v-.1h.4V37z" style="stroke-width:1"/><path fill="#8F72C6" d="M3.6 34.5v.1h-.1v.1c-.2.2-.3.4-.3.8v1V35c.3-.6.3-.6.4-.5" style="stroke-width:1"/><path fill="#A4D348" d="m24.7 29.9.1.2v.3l-.2.2v-.7" style="stroke-width:1"/><path fill="#BCBEC2" d="M22 28.4v1.1h-.6v-.2l.3.1h.2v-1" style="stroke-width:1"/><path fill="#616974" d="M10 20.3v3.4z" style="stroke-width:1"/><path fill="#516377" d="m17.3 3.9.5.1h-.3v.2h.1l-.5-.1-.2-.1h.6-.2z" style="stroke-width:1"/><path fill="#9CB87E" d="m20.8 38.7.2.1v.1l-.8.1.3-.1h.3" style="stroke-width:1"/><path fill="#737A84" d="m14.1 18.2.2.1h.1l.3.2h-.4l.2.2-.4-.2H14v-.1h.2v-.2Z" style="stroke-width:1"/><path fill="#737A83" d="M13.3 38.3c0 .5 0 1-.2 1.3 0 .1-.3 0-.4 0h.2l.2-.2.1-.5v-.4h.1z" style="stroke-width:1"/><path fill="#94B372" d="m24.7 35.6-.1.3-.3.3-.1.2-.3.1.6-.7z" style="stroke-width:1"/><path fill="#8AABC6" d="m13.6 18.1.3.1v.2h.2l.2.3h.2-.3l-.3-.2v-.2h-.2v.4-.6" style="stroke-width:1"/><path fill="#4F6173" d="M18.4 15.7v.1l-.2.4v.3H18v.7-.5c0-.3 0-.5.2-.7l.1-.1v-.2Z" style="stroke-width:1"/><path fill="#9DA88D" d="M21.4 38.5h.3v.2h.2l-.5.1H21l.3-.1h.2v-.2Z" style="stroke-width:1"/><path fill="#8266B2" d="m4.7 38.1-.1.4c-.3.3-.5.3-.7.3h-.3v-.1c.5 0 .5 0 1-.3v-.2Z" style="stroke-width:1"/><path fill="#83949D" d="M13 36.8v.9h-.1v-.8.2h-.2l-.2-.2h.4l.2-.1" style="stroke-width:1"/><path fill="#CBDEA5" d="m30 34.2-.2 1.2v.5l-.1.3v-.8h.1v-.6h.1v-.6Zm.4-2-.2 1.2v.4l-.1.4v-.9h.1v-.5h.1v-.6Z" style="stroke-width:1"/><path fill="#606365" d="M13.6 18.4v.3h.1l.2 1v.2l-.2-.1v-1.4" style="stroke-width:1"/><path fill="#737A84" d="m21 7 .4.1.3.2h-.3c-.2-.2-.5-.2-.7-.2 0-.2.2-.1.3-.1" style="stroke-width:1"/><path fill="#414141" d="M5.3 29H6v.3h-.2l-.4-.2Z" style="stroke-width:1"/><path fill="#526578" d="M21.4 27.1V29h-.2v-.5l.1-.2v-.5z" style="stroke-width:1"/><path fill="#5A6674" d="m19 1.6.3.1v.8-.2h-.1l-.1-.6v-.1Z" style="stroke-width:1"/><path fill="#3D4653" d="M15 26.5v1h-.5v-.1h.3l.1-.2v-.1h.1z" style="stroke-width:1"/><path fill="#8D8D8E" d="M31 24.2h-.1v.1h-.1l-.2.3v.2l-.2.1v.1l-.1.1c0-.2 0-.3.2-.5v-.2h.1l.2-.2z" style="stroke-width:1"/><path fill="#95A7BA" d="m11.2 22.1.3.9.2.8-.2-.2v-.4l-.2-.5z" style="stroke-width:1"/><path fill="#4B4A4D" d="m13.3 19.7.1.1.2-.1h.1v.1h.3v.2h-.6v-.3Z" style="stroke-width:1"/><path fill="#CECFD1" d="M9.2 11.6v2.2z" style="stroke-width:1"/><path fill="#CADEA4" d="m34 36 .3.4v.5c0 .3-.2.3-.3.3l.3-.3v-.3l-.1-.2-.2-.2v-.3Z" style="stroke-width:1"/><path fill="#CDCED0" d="M18.7 18h.2l.1.1h.2v.8-.7h-.6v.5-.5l.1-.1" style="stroke-width:1"/><path fill="#BBBEB4" d="M31.7 15.7h.4l.3.1h.1v.2h.3-.4z" style="stroke-width:1"/><path fill="#6D747E" d="M13.4 3.3v.1h-.2l-.1.1H13l-.1.1h-.3c.2-.3.6-.3.8-.3" style="stroke-width:1"/><path fill="#6A7884" d="m11.7 8.8.1.3v.6c.2.2.2.5.2.8v.5-.1l-.1-1-.2-1z" style="stroke-width:1"/><path fill="#6E8BA5" d="M13 7.9h.1l-.3.5-.4 1v-.2l.5-1.2.2-.1Z" style="stroke-width:1"/><path fill="#414D5C" d="M18.2 4.5h.3v.2h.1v.1h.1V5h-.3v-.1l-.2-.2v-.1Z" style="stroke-width:1"/><path fill="#85ABCB" d="M16.7 4h.6v.2l.5.2h-.5v-.2h-.2v-.1H17z" style="stroke-width:1"/><path fill="#AAA799" d="M18.4 36.8h.2v1h-.4.4V37h-.2z" style="stroke-width:1"/><path fill="#B7C7A6" d="M27.8 34.8v.1l-.3.5.1.2v.2-.2h-.1v.2-.2h-.2l.3-.5z" style="stroke-width:1"/><path fill="#B9D97A" d="M32.2 31.4c-.1.5-.5.3-.7.3H31h.4l.5-.1v-.1h.2v-.1Z" style="stroke-width:1"/><path fill="#B4C79F" d="M28.6 30v.1c0 .2 0 .2-.2.2v.3h-.1l-.4.5-.2.1v-.1l.2-.1v-.2l.2-.2h.1l.2-.2c0-.2.1-.3.2-.3" style="stroke-width:1"/><path fill="#524D5B" d="M7 30.2c.2 0 .3 0 .5.2h-.1v.3l-.1-.1-.1-.2H7z" style="stroke-width:1"/><path fill="#59616D" d="m23.2 15.3-.2.8v-.7h.2" style="stroke-width:1"/><path fill="#87ACCC" d="M17.9 13.7V15l-.1.6-.2.3.2-1.2v-1" style="stroke-width:1"/><path fill="#5A6674" d="M17.2 9.1c.1 0 .2.1.2.3v.8-.1l-.2-.5h.1V9Z" style="stroke-width:1"/><path fill="#463D51" d="M6.4 30.7h.2v.4h-1 1v-.2z" style="stroke-width:1"/><path fill="#505B68" d="M15 27v.3h-.5v.3l.2 1-.1-.3v-.4l-.1-.4v-.2h.4V27Z" style="stroke-width:1"/><path fill="#7696B2" d="M19 15h.5l.2.2h-.8.1z" style="stroke-width:1"/><path fill="#7B7F84" d="M12.3 9.2v.1l.1.5v.8-.9l-.1-.2z" style="stroke-width:1"/><path fill="#6E757F" d="M13.5 37.9h.2l.2.1h.2v.1h-.7V38Z" style="stroke-width:1"/><path fill="#807E80" d="m10.2 36.4.1.6v.6l-.1.1z" style="stroke-width:1"/><path fill="#3F3C44" d="M6.1 30.4h.2l.1.1v.2l-.6-.2h-.2l.2-.1z" style="stroke-width:1"/><path fill="#A1A595" d="m27 20.5-.1.4v.2a23 23 0 0 1-.2.8l-.2.3v.1c0-.3 0-.5.2-.8V21h.1l.1-.4v-.1Z" style="stroke-width:1"/><path fill="#A4A8B2" d="M9.9 16.5v.1h.1l.1.3v.6-.4l-.2-.3z" style="stroke-width:1"/><path fill="#56697D" d="m19.5 8.9.1 1.6v.5-2.1" style="stroke-width:1"/><path fill="#6D747D" d="M20.3 6.7h1l.1.2h-1.1z" style="stroke-width:1"/><path fill="#BABDC0" d="M9 3.1h.8l.3.2v.1H10l-.6-.1H9V3Z" style="stroke-width:1"/><path fill="#E2E4DF" d="M21.7 38v.1h-.2v.1l-.3.2c0-.2 0-.3.2-.4z" style="stroke-width:1"/><path fill="#7F6BB0" d="M5.5 35.2v1.6z" style="stroke-width:1"/><path fill="#9577CB" d="m5.2 34.8.1.6V37h-.1z" style="stroke-width:1"/><path fill="#CDDEAB" d="m29.3 28.9-.2.3-.1.2-.3.2c0-.3.2-.4.4-.5z" style="stroke-width:1"/><path fill="#7794AD" d="m13.2 19 .1.4v1.2-.2z" style="stroke-width:1"/><path fill="#BABCBF" d="m9.6 17.2.2.6v.6c.1.3.2.6.1 1v-1l-.2-.3v-.7l-.1-.3" style="stroke-width:1"/><path fill="#536374" d="M9.5 13.3v1.5l-.1-.5v-1Z" style="stroke-width:1"/><path fill="#3D4755" d="M8.3 4.6V6h-.1V4.6" style="stroke-width:1"/><path fill="#434E5C" d="M18.5 1.5h.6v.3h-.2v-.2h-.5v-.1Z" style="stroke-width:1"/><path fill="#8D6EC4" d="M2.4 35.3v.2c0 .6 0 1.1.2 1.6v.2l-.2-1z" style="stroke-width:1"/><path fill="#C7C9C2" d="M27.5 35.8v.4c0 .2-.2.3-.3.3v-.3l.1-.2h-.2.3v.2-.4Z" style="stroke-width:1"/><path fill="#505C6B" d="m12.9 17 .1.7h.1v.8-.7H13l-.1-.9Z" style="stroke-width:1"/><path fill="#787879" d="M38.3 14.8v2z" style="stroke-width:1"/><path fill="#A4A8AD" d="M18.6 1.3h.1c.2 0 .3 0 .4.2v.1c-.3-.1-.6-.2-1 0 .2-.3.3-.3.5-.3" style="stroke-width:1"/><path fill="#6F6C6F" d="m7.3 38.2.6.1v.4-.3h-.6z" style="stroke-width:1"/><path fill="#CFD7C5" d="M37 27v1.8z" style="stroke-width:1"/><path fill="#A7B1BF" d="M13 26.5v.5l.1.7v-.5H13z" style="stroke-width:1"/><path fill="#46515F" d="M12.8 16v.2l.1.7-.2-.4v-.3l.1-.1" style="stroke-width:1"/><path fill="#C4D1B6" d="M30.5 15.8h.3v.1l-.9.3v-.1h.3v-.2h.2z" style="stroke-width:1"/><path fill="#465363" d="m17.4 9.8.1.1.1.8-.1-.2V10h-.1z" style="stroke-width:1"/><path fill="#D9CFE9" d="m4.5 39.2-.3.2h-.5l.3-.1.1-.1h.3" style="stroke-width:1"/><path fill="#BBDA80" d="m29.8 38 .5.1h.1l.2.1v.1l-.6-.1-.2-.1v-.2Z" style="stroke-width:1"/><path fill="#8B819C" d="m6 32 .2.6.1.4v.1-.2h-.1v-.3c-.2-.2-.2-.4-.3-.7" style="stroke-width:1"/><path fill="#979EAC" d="M13 29.8v2.4h-.1v-2.4" style="stroke-width:1"/><path fill="#7DA0BD" d="M17.3 16.8v.2l-.2.5-.2.3v-.3h.1v-.2h.1v-.1z" style="stroke-width:1"/><path fill="#94999F" d="M8.1 5v.6l.2 1A4 4 0 0 1 8 5Z" style="stroke-width:1"/><path fill="#4B5969" d="M8.7 3.6V4h-.1l-.3.5.1-.5.1-.1.2-.2" style="stroke-width:1"/><path fill="#7F7F80" d="M33 26.4v.9l-.1 1v-2" style="stroke-width:1"/><path fill="#515A65" d="M12.7 38.1v1.3l-.1-.6V38" style="stroke-width:1"/><path fill="#77619F" d="M4.5 35.3v1.5l-.2.3v-.2c.2-.2.2-.5.2-1z" style="stroke-width:1"/><path fill="#617990" d="M10.8 34.7v.2h.2l.1.5h.1v.2h.1-.2v-.1l-.1-.3h-.1v-.4h-.1v-.2Z" style="stroke-width:1"/><path fill="#4B5561" d="m13.5 17.8.3.1v.2h-.2v.3-.6" style="stroke-width:1"/><path fill="#96B575" d="M25 34.6h.1v.2h.2v.1H25v.1l-.1.4h-.2l.1-.1.1-.3v-.4" style="stroke-width:1"/><path fill="#CADEA4" d="M25.9 33c-.2.1-.2.2-.2.3l-.3.5.2-.5V33l.2-.2" style="stroke-width:1"/><path fill="#9E89C4" d="M7.3 30.1h.9v.1h-.7v.2l-.2-.1z" style="stroke-width:1"/><path fill="#9A9F8D" d="m36.4 21.9.1.5.1.3v.7-.8h-.1v-.3h-.1z" style="stroke-width:1"/><path fill="#AFB2B9" d="M21.7 14.3v.3h-.1v.2l-.4.1-.2-.1h.2l.3-.1v-.2z" style="stroke-width:1"/><path fill="#5B636E" d="M12 11.5h.2-.1v2.2-2.2Z" style="stroke-width:1"/><path fill="#BBCF9E" d="M20.5 38.8c0 .1-.1.2-.3.2h.2l-.3.1V39l.4-.1" style="stroke-width:1"/><path fill="#B7D975" d="M20.8 38v.2h-.1v.2h-.1v.1l-.1.2v-.2h-.1v-.1l.2-.2.2-.1" style="stroke-width:1"/><path fill="#BCDA82" d="m22.3 37.4-.6.3v.1l-.2.1v-.1h.2v-.2h.2l.2-.2z" style="stroke-width:1"/><path fill="#727274" d="M6.5 34.8h.1v1.5-1.5" style="stroke-width:1"/><path fill="#9EA5B1" d="M12 35.4v.2l-.2.2-.3.2v-.1l-.1-.2z" style="stroke-width:1"/><path fill="#443D4E" d="M3 33.4h.1l-.1.4-.2.3-.1.1v.3-.5l.1-.2.3-.4" style="stroke-width:1"/><path fill="#B3D76B" d="M25 32.6c0 .2 0 .2-.2.3v.2l-.1.1-.1.3h-.1v-.4h.1V33h.1v-.2h.1v-.1l.1-.1Z" style="stroke-width:1"/><path fill="#8F8F8F" d="M8.3 29.5c.1 0 .2 0 .3.3v.1l.4.2h-.5v-.3z" style="stroke-width:1"/><path fill="#B9D4E1" d="M14 25v.1c-.2.2-.2.3-.2.5v.5h-.1v-.9l.2-.2" style="stroke-width:1"/><path fill="#C5C7CA" d="M22 21.7V24h-.1v-2.3Z" style="stroke-width:1"/><path fill="#647D94" d="M16 18.5h.2c-.2.3-.4.4-.6.4h.1v-.2h.3z" style="stroke-width:1"/><path fill="#ACACAF" d="M12.6 15v.2l.1.2v.7-.2l-.1-.3z" style="stroke-width:1"/><path fill="#5E6E7F" d="m19.7 11.4.1.5v.7-1.2" style="stroke-width:1"/><path fill="#BDBABE" d="m8.9 11.6.1.5v.9a2 2 0 0 1 0-.6v-.1z" style="stroke-width:1"/><path fill="#A5A0A5" d="M8.8 11v.2l.1.7v.6l.1.4-.2-.9v-.9Z" style="stroke-width:1"/><path fill="#B1B4B8" d="M20.8 6.7h.4l.5.1V7l-.2-.1h-.3v-.1h-.4Z" style="stroke-width:1"/><path fill="#485564" d="M19.2 3.5v.8z" style="stroke-width:1"/><path fill="#85ABCB" d="m18.9 1.6.3.6v.1-.1l-.2-.3-.4-.1h-.2c.1-.2.3-.2.5-.2" style="stroke-width:1"/><path fill="#6C7457" d="m25.8 37.3-.1.1h-.2v.1h-.2v.1h-.4l.3-.1c.5-.3.5-.3.6-.2" style="stroke-width:1"/><path fill="#83A8C6" d="M19.7 18h-.2v.2l-.2.3v.6-.9c.1-.2.3-.4.4-.3" style="stroke-width:1"/><path fill="#B0B0B1" d="M36.6 12.8h.8v.1l.1.2V13H37v-.1h-.4Z" style="stroke-width:1"/><path fill="#B1C0A1" d="M22.9 38v.2l-.2.1h-.2l.1-.2h.3" style="stroke-width:1"/><path fill="#C5D1B7" d="m26.3 36.5-.3.2h-.1l-.4.2c0-.1 0-.2.2-.2l.4-.3h.1" style="stroke-width:1"/><path fill="#544A67" d="M3.6 34.3H4v.1h.2v.3c-.3-.3-.4-.3-.7-.3l-.1.1v-.2Z" style="stroke-width:1"/><path fill="#5C6064" d="M14.6 25.2v.4l.2.5h-.2l-.2-.3v-.2.1l.3.2-.1-.3z" style="stroke-width:1"/><path fill="#6A6A6B" d="M31.2 24h.5zv.2h-.3c0-.2.2-.2.3-.2" style="stroke-width:1"/><path fill="#859EB2" d="M14 19.9v.1h.1v.3h.1v.7-.7H14l-.1-.4Z" style="stroke-width:1"/><path fill="#7B9DBA" d="M21 17.3h.1c.3.2.5.2.8.2v.1h-.4l-.4-.1v-.2Z" style="stroke-width:1"/><path fill="#414B59" d="M17.5 16v.5l-.1.1h-.1c0-.3 0-.7.2-.7" style="stroke-width:1"/><path fill="#747B85" d="M12.2 13.7v.4l.2 1v.2c-.1-.5-.3-1-.3-1.6" style="stroke-width:1"/><path fill="#576574" d="M17.7 11v.3h.1v.7-.5.4h-.1z" style="stroke-width:1"/><path fill="#7E848D" d="m21.7 7 .4.3v.1h.2v.2H22v-.2l-.3-.3Z" style="stroke-width:1"/><path fill="#3D4754" d="M20.7 6.8h.6V7h-.6z" style="stroke-width:1"/><path fill="#86ACCC" d="M19.2 3.1V4H19v.7-.8h.1v-.4l.1-.3" style="stroke-width:1"/><path fill="#90B16D" d="M23.7 37.6a1 1 0 0 1-.9.5h.2v-.2c.2 0 .3 0 .4-.2h.3" style="stroke-width:1"/><path fill="#57626C" d="M13 36.8v.6l-.1.2v.1-.5h-.2V37h.2Z" style="stroke-width:1"/><path fill="#836BB6" d="M3 32.7h.1v.1L3 33v.2l-.3.3v-.2h.1v-.1l.3-.3v-.2Z" style="stroke-width:1"/><path fill="#3F4B59" d="M14.3 18.4h.1l.2.1v.2h-.2l-.1-.2Z" style="stroke-width:1"/><path fill="#C7CACE" d="m21.2 17 .6.1h.3-.8v-.2Z" style="stroke-width:1"/><path fill="#B3B6AA" d="m33.5 16.5.4.3h.1v.2h.1v.2l-.3-.3v-.1l-.2-.2h-.1Z" style="stroke-width:1"/><path fill="#757C86" d="M17.7 14a6 6 0 0 1-.1 1.6h-.1v-.5l.2-.7z" style="stroke-width:1"/><path fill="#B7B4B7" d="m8.7 13.8.2.2v.4l.1.3v.4c-.2-.4-.2-.7-.2-1.2v-.1Z" style="stroke-width:1"/><path fill="#C9CBCF" d="M23.3 14c0 .5 0 .9-.2 1.4v-.7h.1v-.8Z" style="stroke-width:1"/><path fill="#797979" d="M12.8 12.8c0 .3.2.6.1 1l.1.7v-.4l-.1-.3v-.5z" style="stroke-width:1"/><path fill="#444F5D" d="M16.8 8.4c.1 0 .2.1.3.4h-.2l-.1-.2z" style="stroke-width:1"/><path fill="#A6AA9B" d="M30.3 31.7v.9l-.1.2-.1.3v-.9l.1-.2v-.3Z" style="stroke-width:1"/><path fill="#A7A6A7" d="M31.3 24h.6l.3.2h-.3c-.2-.2-.4-.2-.6-.2" style="stroke-width:1"/><path fill="#8CACC7" d="m10.1 19 .2.2v.7h-.1v-1" style="stroke-width:1"/><path fill="#434F5D" d="M20 17.3v.2h-.1v-.2Zm-.2.2v.2c0 .2-.2.2-.3.2z" style="stroke-width:1"/><path fill="#A9ADB4" d="M12 11.6h.2v1.6l-.1-.5v-1.1" style="stroke-width:1"/><path fill="#BCCCAA" d="M25.4 37a1 1 0 0 1-.7.2h.2l.4-.3h.1" style="stroke-width:1"/><path fill="#BEA2F2" d="M2.2 36.3c0 .6.1.9.3 1.3v.3l-.1-.4v-.2c-.2-.4-.2-.6-.2-1" style="stroke-width:1"/><path fill="#516377" d="m19 35.7-.3.6-.2.2h-.1v-.2l.2-.1.3-.3v-.2" style="stroke-width:1"/><path fill="#A2AFC0" d="M13.1 33.8v.7l-.1.1-.1.4.1-.7v-.4h.1Z" style="stroke-width:1"/><path fill="#4F6072" d="M10 19.2c.2.2.2.4.2.7v1-1.1H10v-.5Z" style="stroke-width:1"/><path fill="#787A80" d="m18.5 17.5.2.2.5.1h.2-.9z" style="stroke-width:1"/><path fill="#8FACC6" d="m9.5 14 .1.5v1.1-1.7Z" style="stroke-width:1"/><path fill="#949FA1" d="M13.5 37.1h.2v.4l-.1-.2v.2h-.1l-.1.3v-.4h.1z" style="stroke-width:1"/><path fill="#626162" d="M6.7 35.9V37l-.1-.5v-.6" style="stroke-width:1"/><path fill="#B5B8AC" d="M26.4 22.4v.8l-.2.5V23h.1v-.3h.1z" style="stroke-width:1"/><path fill="#C9CBCF" d="M15.7 7.4c.2 0 .5.3.6.6H16v-.4h-.2v-.1h-.1v-.2Z" style="stroke-width:1"/><path fill="#627B93" d="M20.1 7.1v.1l-.2.4V8h-.2l.2-.6z" style="stroke-width:1"/><path fill="#566371" d="M11.2 5.2v1H11v-.7.4-.7Z" style="stroke-width:1"/><path fill="#6D6F75" d="M9.5 5.5v1h.2v.3h-.2V5.4" style="stroke-width:1"/><path fill="#748899" d="M11 5.3v.2l.1.6-.3-.2h.3z" style="stroke-width:1"/><path fill="#A2B28D" d="M22.2 38.3h.2v.1l-.5.1.1-.1z" style="stroke-width:1"/><path fill="#A0BB83" d="m22.7 34.6.1.5h-.1z" style="stroke-width:1"/><path fill="#645977" d="M5 34v.2l.2.5v.3-.2H5v-.3l-.2-.5" style="stroke-width:1"/><path fill="#747476" d="M6.3 33.3h.1v.6h.1v.8-.5l-.1-.3v-.6" style="stroke-width:1"/><path fill="#D1DFB3" d="M24.8 30.2v.3q0 .3-.3.3v-.5.3h.1l.2-.2z" style="stroke-width:1"/><path fill="#8C6FC1" d="m8.4 30.5.1.1v.2h-.7l.6-.1z" style="stroke-width:1"/><path fill="#A6BBCF" d="M13.3 28.4v.5l.1.6v.4-.6l-.1-.4z" style="stroke-width:1"/><path fill="#616B74" d="m14.1 24.9.1.4.1.3-.2-.3-.1-.1V25h.1Z" style="stroke-width:1"/><path fill="#5A7085" d="M10 24.3v1.6z" style="stroke-width:1"/><path fill="#757A86" d="M16.3 12.9v1l.1.1v-.2h-.1V13Z" style="stroke-width:1"/><path fill="#82A7C6" d="M9.5 7.9h.1l.2.2.2.1h.2v.4-.2H10l-.3-.2V8l-.2-.2" style="stroke-width:1"/><path fill="#69849D" d="m15.3 6.8.4.1V7h.2c-.1.2-.2.1-.3 0h-.1l-.2-.1z" style="stroke-width:1"/><path fill="#8CADCA" d="M9.6 6.5v.3-.1h.1V7h-.2v-.2h-.2v.1h-.1c.1-.2.2-.3.4-.3" style="stroke-width:1"/><path fill="#404B59" d="M9.7 3.4h.3v.1h.1v.1l-.4-.1z" style="stroke-width:1"/><path fill="#B4C7A0" d="M22.5 37.6v.1l-.2.1c-.1.2-.3.3-.5.3l.3-.3h.1z" style="stroke-width:1"/><path fill="#666566" d="m6.7 36.6.1.6v.2c-.2-.3-.1-.5-.1-.8" style="stroke-width:1"/><path fill="#596E84" d="M18.3 36.5v.2l-.2.2h-.3.2v-.2h.3z" style="stroke-width:1"/><path fill="#798691" d="m16.3 35.6.2.6.2.6-.3-.6v-.6" style="stroke-width:1"/><path fill="#6D7172" d="M21.4 28.2h.1v1.1h-.2v-.7h.1z" style="stroke-width:1"/><path fill="#B3D86B" d="M28.5 27.6h.6v.7-.6h-.6z" style="stroke-width:1"/><path fill="#6A6A6B" d="M30 26.4v1.8z" style="stroke-width:1"/><path fill="#7C836A" d="m29.5 25.1-.1.5-.1.8v-1h.1v-.2Z" style="stroke-width:1"/><path fill="#A1B7CC" d="m10.4 17.8.2.6v.2l.1.1v.1l-.2-.5v-.2h-.1z" style="stroke-width:1"/><path fill="#6B7356" d="M31.7 15.9h.8v.1h-.8z" style="stroke-width:1"/><path fill="#66798D" d="M20.4 15v.5h.1v.6l-.1-.5z" style="stroke-width:1"/><path fill="#748798" d="M11.2 5.6v.6l.2.2h-.1L11 6l.1-.3v-.2Z" style="stroke-width:1"/><path fill="#708EA8" d="M17.6 4c.2 0 .4 0 .6.2h-.4V4z" style="stroke-width:1"/><path fill="#5E748B" d="M16 3.7h.5l.2.2-.7-.1Z" style="stroke-width:1"/><path fill="#B0B3B8" d="M12.4 3.7c-.2.3-.4.4-.7.5v-.1h.2V4h.1v-.1l.2-.2z" style="stroke-width:1"/><path fill="#C5C7C0" d="m29 37.6-.3.4v.2-.6h.4" style="stroke-width:1"/><path fill="#B5D871" d="M22.8 36.8h.2l-.3.3h-.1l-.1.1h-.1V37h.4z" style="stroke-width:1"/><path fill="#A5B7CA" d="m13.3 32.4-.1 1.4v-.7z" style="stroke-width:1"/><path fill="#B8D978" d="M24.3 32.2h.1v.4h-.1z" style="stroke-width:1"/><path fill="#4C4D4D" d="m15.6 31.6.1.7v.6-1.3" style="stroke-width:1"/><path fill="#5E5C5E" d="M4.5 29.5H5zv.3h-.2z" style="stroke-width:1"/><path fill="#86ACCC" d="M10 24.8v1.6z" style="stroke-width:1"/><path fill="#6D757E" d="M23.1 15v.1l.1.1h.1l-.2.7v-.8Z" style="stroke-width:1"/><path fill="#48515E" d="M23.3 14.7v.4l-.1.2v-.5z" style="stroke-width:1"/><path fill="#BEC1C6" d="M20.5 13.1v1z" style="stroke-width:1"/><path fill="#727983" d="M15.2 7.2c.3 0 .5 0 .7.2h-.3l-.4-.1z" style="stroke-width:1"/><path fill="#566A7E" d="M14.3 7h-.2l-.3.3h-.2.1V7c.4-.3.4-.3.6-.1" style="stroke-width:1"/><path fill="#C2C5C8" d="M13.2 39.4v.2l-.2.2-.3-.1h.3z" style="stroke-width:1"/><path fill="#70785E" d="M19.5 38.4h.1v.4l-.1.1z" style="stroke-width:1"/><path fill="#CEDFAE" d="M24.5 35.3c-.2.4-.2.4-.4.4l.1-.3c.1-.2.2-.2.3-.1" style="stroke-width:1"/><path fill="#CCDEA8" d="m26.3 32.5-.4.4c0-.2.1-.3.3-.4m.5-.5-.4.5c0-.3.1-.4.3-.5m.5-.4c-.2.2-.2.4-.4.4 0-.3.1-.4.3-.5m.5-.4c-.1.2-.2.4-.4.4 0-.2.1-.4.3-.5" style="stroke-width:1"/><path fill="#83A6C7" d="M10 30.8v.8l.1.5v-.5l-.2-.2v-.6Z" style="stroke-width:1"/><path fill="#CCDEA8" d="M27.9 30.6c-.1.2-.2.4-.4.4 0-.2.1-.3.3-.5zm.4-.5c-.1.3-.2.4-.4.4 0-.2.1-.3.3-.4zm.4-.5c-.1.3-.2.5-.4.5 0-.3.1-.4.3-.5z" style="stroke-width:1"/><path fill="#C6D2B9" d="M36.9 28.8V30v-1.3" style="stroke-width:1"/><path fill="#A5A5A6" d="m30.2 28.9.1.3.3.5-.3-.3z" style="stroke-width:1"/><path fill="#A1B7CC" d="M11.7 22.2c.2 0 .2.2.2.3l.1.2v.4-.2l-.1-.2-.1-.4v-.1Z" style="stroke-width:1"/><path fill="#91969E" d="M20.7 16v.2l.2.1v.3h.2v.2H21v-.3l-.1-.2h-.1V16Z" style="stroke-width:1"/><path fill="#4B5968" d="M20.5 15.6v.3h.1v.3z" style="stroke-width:1"/><path fill="#CFD2D5" d="M15.5 13.5v.2l.1 1.3v-.3h-.1z" style="stroke-width:1"/><path fill="#6C696D" d="M8 38.8v.1l.5.1v.1h-.4V39z" style="stroke-width:1"/><path fill="#B4B0A0" d="M12.8 37.9V39c-.2-.4-.1-.7 0-1v-.2Z" style="stroke-width:1"/><path fill="#B3C69D" d="M20.1 38h.2v.4l-.2-.1v-.4Z" style="stroke-width:1"/><path fill="#ADAFB2" d="M18.7 37v.1l.1.7h.3-.3V37Z" style="stroke-width:1"/><path fill="#625874" d="M4.4 33.2h.2v.2l.2.2v.2H5v.1l-.2-.3-.2-.1v-.3Z" style="stroke-width:1"/><path fill="#7B7CB3" d="m10.2 32.6.1.4v.6z" style="stroke-width:1"/><path fill="#C3DC93" d="M25.6 28.3h.1v1-.8l-.1.3z" style="stroke-width:1"/><path fill="#CBC5AF" d="M9.6 26.4h.1v.5h-.1z" style="stroke-width:1"/><path fill="#AFD762" d="M30 22.7v.7z" style="stroke-width:1"/><path fill="#4A555D" d="M19.3 18v1-.9" style="stroke-width:1"/><path fill="#3D4755" d="M20 16.4v.8z" style="stroke-width:1"/><path fill="#C3C6CB" d="M21.7 13h.1v1.3l-.1-.1v-.3h.1V13Z" style="stroke-width:1"/><path fill="#444445" d="M12.4 10.7v.4c0-.3 0-.2-.2-.2h-.1v-.1h.4" style="stroke-width:1"/><path fill="#576575" d="M8.4 6.2v.3l.1.2V7l-.1-.2z" style="stroke-width:1"/><path fill="#7595B1" d="M19 3v.3h-.3v.1V3z" style="stroke-width:1"/><path fill="#9AC6EB" d="m17.8 2.3-.1.3v.2l-.2.2v-.2l.1-.2.1-.2" style="stroke-width:1"/><path fill="#92A37C" d="m22.5 38.2.2.1-.3.1-.2-.1h.3" style="stroke-width:1"/><path fill="#99B2CA" d="m12.4 34.5-.4.9v-.2l.3-.6v-.1Z" style="stroke-width:1"/><path fill="#535353" d="m14.4 24 .1.5v.7-.7l-.1-.4" style="stroke-width:1"/><path fill="#7B818B" d="m15.9 15.5.5.1h.2v.1h-.7z" style="stroke-width:1"/><path fill="#7B7A7B" d="m37.6 13.2.1.1v.2l.3.2v.4l-.2-.5-.2-.2z" style="stroke-width:1"/><path fill="#4F4F4F" d="M12.7 12.3v.7l.1.4V13l-.1-.2z" style="stroke-width:1"/><path fill="#9AAABC" d="M9 5.8V6a2 2 0 0 0-.3.7v-.6H9l.1-.3" style="stroke-width:1"/><path fill="#9A9F8D" d="M28.7 37.6h.2zv.2h-.4v-.2z" style="stroke-width:1"/><path fill="#B2B6A9" d="M29.5 35.7v.6l-.2.4.1-.8z" style="stroke-width:1"/><path fill="#A5A9AF" d="m9.7 30.5.1 1v.4-.6h-.1z" style="stroke-width:1"/><path fill="#777677" d="m5 30.5.3.3v.2l-.2-.2-.2-.3" style="stroke-width:1"/><path fill="#423C4B" d="m7.4 30.5.2.2h-.1v.3l-.1-.4" style="stroke-width:1"/><path fill="#B4D86F" d="M25.4 30.2h.1v.3l-.2.1v-.4" style="stroke-width:1"/><path fill="#B5D870" d="m24.7 29.9.1.2v.3-.4h-.1v.6h-.1v-.7" style="stroke-width:1"/><path fill="#8EB6D8" d="M21.2 28.8v.8l-.1.3v.2-1.3Z" style="stroke-width:1"/><path fill="#75777A" d="M15 27.8v.4h.1v.3l.1.5v-.2z" style="stroke-width:1"/><path fill="#B6B6B6" d="M38.3 17v.6l-.2.4v-.4z" style="stroke-width:1"/><path fill="#95B9D7" d="M12.2 8.3v.8l.2.1v.1h-.1z" style="stroke-width:1"/><path fill="#CBDAB0" d="m20.8 38.5-.2.3h-.2v-.1l.2-.2z" style="stroke-width:1"/><path fill="#C6DD99" d="M24.9 31.4h.1v.4l-.1-.1z" style="stroke-width:1"/><path fill="#7B858D" d="M15.5 30.5v.7l.1.2v.2-.2l-.1-1" style="stroke-width:1"/><path fill="#637B93" d="M21.5 25.8v1.1z" style="stroke-width:1"/><path fill="#9B979A" d="M18.3 16.3v1z" style="stroke-width:1"/><path fill="#C3C6CA" d="M14 7.4v.3l-.3.1h-.2l.4-.3z" style="stroke-width:1"/><path fill="#89AFCF" d="m19.4 5.8.3.4v.1l.1.1-.2-.1v-.1h-.1V6h-.1z" style="stroke-width:1"/><path fill="#465464" d="M17.6 4h.2v.4h-.2z" style="stroke-width:1"/><path fill="#899771" d="M19.6 38.6v.2l.1.2v.2h-.1z" style="stroke-width:1"/><path fill="#87A960" d="M21 38.6v.1l-.2.1h-.1z" style="stroke-width:1"/><path fill="#B3C69E" d="M19.8 38.4h.1v.4h-.1z" style="stroke-width:1"/><path fill="#686E75" d="m18.6 36.5.1.3v.7l-.1-.6z" style="stroke-width:1"/><path fill="#C3C2C5" d="M11 36h.2v.2l-.3.2h-.2l.2-.2h.2v-.3Z" style="stroke-width:1"/><path fill="#9BB9D4" d="M12.7 35.3v.4l-.1.2-.2.2.2-.6v-.1Z" style="stroke-width:1"/><path fill="#A4BD89" d="M24.7 35h.1v.3h-.1v.1h-.1v-.3" style="stroke-width:1"/><path fill="#59637D" d="M10 31.4v.5h-.2v-.3.2h.2z" style="stroke-width:1"/><path fill="#B0D766" d="M25.6 28.5h.1v.7-.4l-.2.2v-.1z" style="stroke-width:1"/><path fill="#A2B5C8" d="m11.2 20.3.2.6h-.1v-.2l-.1-.3" style="stroke-width:1"/><path fill="#A5A4AB" d="M11 20.3h.2v.6-.5H11z" style="stroke-width:1"/><path fill="#A2B5C7" d="m11 19.6.2.6H11z" style="stroke-width:1"/><path fill="#A5A4AB" d="M10.8 19.6h.1l.2.6H11V20h-.1v-.4Z" style="stroke-width:1"/><path fill="#576B7F" d="M14 18.4h.3v.1l.2.2-.4-.2H14z" style="stroke-width:1"/><path fill="#84939E" d="M18.5 18v.4h.1v.7-.6h-.1z" style="stroke-width:1"/><path fill="#BAB7BB" d="M9.4 16.5v.1l.1.2.1.4-.2-.6z" style="stroke-width:1"/><path fill="#6B727E" d="m20.8 14.5.2.1v.1h.4-.5l-.1-.1Z" style="stroke-width:1"/><path fill="#A5AAB0" d="m23 9.8.2.3v.5-.1l-.1-.7" style="stroke-width:1"/><path fill="#647E95" d="M9.3 7.6c.2 0 .2.2.3.4l.2.2h-.2v-.3l-.2-.1v-.2" style="stroke-width:1"/><path fill="#4A5563" d="M17.7 2.2v.3l-.2.2v-.2z" style="stroke-width:1"/><path fill="#99B679" d="M21.5 38.4h-.1l-.2.2H21c0-.2.1-.2.2-.2l.1-.1h.2" style="stroke-width:1"/><path fill="#CEDFAE" d="m29.6 36.3-.1 1v-1Z" style="stroke-width:1"/><path fill="#7A8268" d="M27.1 36h.2v.3H27V36Z" style="stroke-width:1"/><path fill="#CED7C4" d="M24.5 35.3v.1h.2v.2l-.1.2-.1.1h-.1v-.1l.2-.1v-.4Z" style="stroke-width:1"/><path fill="#60778E" d="M21.4 27.1v.9z" style="stroke-width:1"/><path fill="#7B7F81" d="M9.4 26.3v.2l.1-.1h.1v.4-.1.2h-.1v-.7Z" style="stroke-width:1"/><path fill="#5A626D" d="M10 22.4v1.3z" style="stroke-width:1"/><path fill="#B7D975" d="M28.4 17.6h.1l.1.5-.2-.2h-.1v-.3Z" style="stroke-width:1"/><path fill="#7C818C" d="M15.6 13.2v1.2h-.1v-1.2" style="stroke-width:1"/><path fill="#B7B4B8" d="m8.6 12.8.1.7v.2-.4h-.1z" style="stroke-width:1"/><path fill="#434E5C" d="M19.8 8v.4h-.1V8z" style="stroke-width:1"/><path fill="#767F87" d="m11.7 6.8.2.6v.2l-.2-.6z" style="stroke-width:1"/><path fill="#657F97" d="M18.6 3.6V4l-.2.2v-.4z" style="stroke-width:1"/><path fill="#CCDEA9" d="M29.4 37.3v.3l.2.2h-.3v-.4h.1" style="stroke-width:1"/><path fill="#A4BD88" d="M24.3 36v.2l-.1.1c0 .2-.2.2-.3.2l.3-.3V36Z" style="stroke-width:1"/><path fill="#CFDFAF" d="M24 35.8c0 .3-.1.4-.3.4z" style="stroke-width:1"/><path fill="#A5A99A" d="m27.5 35.6.1.2v.3z" style="stroke-width:1"/><path fill="#524865" d="M4.5 35v.3h.1v1-1z" style="stroke-width:1"/><path fill="#7993A8" d="m15.4 34 .1.7v.4V34Z" style="stroke-width:1"/><path fill="#B6B2C7" d="m10.2 33.6.1.4.1.2v.3l-.2-.7z" style="stroke-width:1"/><path fill="#9E9E9E" d="M2.4 32.2v.6h-.1v.6-1.2" style="stroke-width:1"/><path fill="#91ADC3" d="M15.6 30.8v1z" style="stroke-width:1"/><path fill="#A1A595" d="M32.8 30.7h.1v.7l-.1-.5z" style="stroke-width:1"/><path fill="#A0BB84" d="M29.6 30c.2.2.2.2.2.5v.2-.2l-.2-.4v-.2Z" style="stroke-width:1"/><path fill="#707071" d="m30.4 29.3.2.3v.2h.2c-.2 0-.3-.2-.4-.5" style="stroke-width:1"/><path fill="#515E6D" d="m14.7 28.9.1.1v.9-1" style="stroke-width:1"/><path fill="#34363D" d="m14.5 27.4.4.1v.1h-.3v.3-.5" style="stroke-width:1"/><path fill="#67696B" d="M13.7 19v.1l.1.3v.2l.2.1v.2l-.3-.1v-.7Z" style="stroke-width:1"/><path fill="#BDBDBD" d="M37.6 18.7c0 .3 0 .4-.2.4h-.2.1l.1-.1z" style="stroke-width:1"/><path fill="#A5A5AC" d="m10.5 18.5.3.8h-.1v-.2l-.1-.1v-.5Z" style="stroke-width:1"/><path fill="#6D7480" d="m16.4 14 .5.1v.1h-.3z" style="stroke-width:1"/><path fill="#CACCD0" d="M19.8 11.1v1.1z" style="stroke-width:1"/><path fill="#A8ACB1" d="M11.7 4.3h-.2v.4h-.1l-.2.2v-.1l.2-.1v-.1h.1v-.2h.2" style="stroke-width:1"/><path fill="#3F4957" d="M9.2 3.4v.1l-.4.1c.1-.3.2-.2.4-.2" style="stroke-width:1"/><path fill="#5A6443" d="m23 38.9-.1.2-.1.1V39l.1-.1" style="stroke-width:1"/><path fill="#C7D3BA" d="m21.8 38.1-.4.3h-.1l.2-.2h.3" style="stroke-width:1"/><path fill="#71795D" d="m27.6 36-.2.5h-.1l.3-.4v-.2" style="stroke-width:1"/><path fill="#BACBA8" d="M36.2 32.8v.5H36v.2-.5l.1-.2Z" style="stroke-width:1"/><path fill="#BADA7E" d="M25.3 29.8v.3H25v-.3h.2" style="stroke-width:1"/><path fill="#74767F" d="m9.8 17.8.2.6-.1-.2v.3-.6Z" style="stroke-width:1"/><path fill="#84A9C8" d="M18.7 15.5c-.1.2-.2.3-.4.3v-.1h.1v-.1c.2-.2.2-.2.3-.1" style="stroke-width:1"/><path fill="#566B7F" d="m9.8 8.2.3.1v.3-.1l-.3-.1z" style="stroke-width:1"/><path fill="#BDBFC2" d="M19.3 4v.8H19l.2-.9" style="stroke-width:1"/><path fill="#5E7489" d="m17.6 2.5-.2.5v-.4h.2z" style="stroke-width:1"/><path fill="#555C64" d="M13.4 38v.3h-.1v.4h-.1v-.4z" style="stroke-width:1"/><path fill="#A3A898" d="m27 36.2.1.1v.2l.2-.1v.2H27v-.3Z" style="stroke-width:1"/><path fill="#83A8C7" d="M18.4 36.2h.2l-.2.3h-.1v.1H18h.1v-.1l.3-.2Z" style="stroke-width:1"/><path fill="#516276" d="M20.8 31v.8h-.2l.2-.7" style="stroke-width:1"/><path fill="#60788F" d="M21.1 29.5v.5l-.1.3v-.6zv-.1Z" style="stroke-width:1"/><path fill="#6B6475" d="M6.9 30h.3v.2H7v.1l-.2-.1V30Z" style="stroke-width:1"/><path fill="#7D7F7D" d="M9.6 26.2h.2v.7-.5h-.2z" style="stroke-width:1"/><path fill="#96A8BC" d="M10.9 21.3v.2h.1l.1.5-.2-.5z" style="stroke-width:1"/><path fill="#3E4956" d="M13.7 18h.2v.2h.1v.1-.1h-.2v-.3Z" style="stroke-width:1"/><path fill="#4B5969" d="M20.3 14.8v.2l.1.5-.1-.4z" style="stroke-width:1"/><path fill="#C2C2C5" d="m8.3 6.8.2.5v.5l-.1-.7v-.3" style="stroke-width:1"/><path fill="#596A7D" d="M19 4.5v.3h.1v.3V5h-.2l.1-.3v-.1Z" style="stroke-width:1"/><path fill="#7E63AD" d="m3 38.2.3.2v.1l.2.1h-.3v-.2l-.2-.1z" style="stroke-width:1"/><path fill="#B0B4A7" d="M29.3 36.7v.2c0 .5 0 .5-.2.7v-.2z" style="stroke-width:1"/><path fill="#82A6C5" d="M20.9 30.4v.8h-.1v-.5h.1z" style="stroke-width:1"/><path fill="#8266B0" d="M7.2 30.4v.3H7l.3-.1v-.2Z" style="stroke-width:1"/><path fill="#687279" d="M19.2 18.5v.8z" style="stroke-width:1"/><path fill="#83939F" d="M13.7 18.7v.4l.1.2.1.4-.1-.3v-.7" style="stroke-width:1"/><path fill="#C0CEB1" d="m29.7 16.4-.3.3h-.1v-.2l.2-.1z" style="stroke-width:1"/><path fill="#5E5B5F" d="M12.5 14v.5h.1v.5-.9" style="stroke-width:1"/><path fill="#465260" d="M19.7 8.5v.6l-.1-.1v-.5" style="stroke-width:1"/><path fill="#515966" d="m20.6 6.8.2.2-.2.2h-.2v-.1h.2z" style="stroke-width:1"/><path fill="#434D5B" d="M10.5 4h.2v.3l-.2-.1z" style="stroke-width:1"/><path fill="#86ACCC" d="M13 3.9h-.2l-.1.2h-.1c0-.2 0-.2.2-.2v-.1h.2" style="stroke-width:1"/><path fill="#798066" d="M27 38.2h.2v.1l-.1.1H27z" style="stroke-width:1"/><path fill="#807F7C" d="M18 37.2v.1l.1.3v.2l-.2-.3v-.3Z" style="stroke-width:1"/><path fill="#A0BB82" d="M23.8 36.5v.3h-.3l.3-.2Z" style="stroke-width:1"/><path fill="#D1DFB4" d="m30 34.2-.1.8v-.8Z" style="stroke-width:1"/><path fill="#9175C5" d="M4.1 33c.2 0 .3 0 .5.2h-.3l-.2-.3" style="stroke-width:1"/><path fill="#D1DFB4" d="m30.4 32.2-.1.8v-.8Z" style="stroke-width:1"/><path fill="#302C32" d="M7.4 30.7h.2v.3-.2h-.1v-.1Z" style="stroke-width:1"/><path fill="#49525F" d="M15 30.4v1z" style="stroke-width:1"/><path fill="#5A5267" d="M5.8 30.2H6v.1l.3.2-.3-.1-.1-.1v-.1Z" style="stroke-width:1"/><path fill="#7C9BB7" d="M14.8 29.8v.2l.2.8-.2-.6z" style="stroke-width:1"/><path fill="#7990A2" d="M13.7 26.1h.1v.1l.1.5-.2-.3z" style="stroke-width:1"/><path fill="#D1D4D7" d="M20 13.5h.1v.3h.1v.4-.3l-.1-.4Z" style="stroke-width:1"/><path fill="#D0D2D5" d="m17.5 10.8.1.2v.8-1Z" style="stroke-width:1"/><path fill="#B3B6BA" d="M8.1 5.7V6l.1.5.1.1v.2l-.2-1" style="stroke-width:1"/><path fill="#54677B" d="M13 3.6h.4-.3v.2h-.2v-.2Z" style="stroke-width:1"/><path fill="#61758A" d="M17.7 2v.1h.2c0 .2-.2.3-.3.4V2Z" style="stroke-width:1"/><path fill="#A9D554" d="M20.5 38.5v.2h-.3v-.2z" style="stroke-width:1"/><path fill="#CEDFAE" d="m20.4 38.5-.1.2H20v-.1h.2v-.1z" style="stroke-width:1"/><path fill="#969BA1" d="M21 31v.5l-.1.2z" style="stroke-width:1"/><path fill="#A0A0A0" d="m32.6 29.2-.1.5-.2.1v-.2l.2-.2v-.2" style="stroke-width:1"/><path fill="#A7AAB4" d="m12.8 26 .1.8v-.7" style="stroke-width:1"/><path fill="#BFC1B8" d="M26.2 23.7v1.1l-.1-.6v-.5Z" style="stroke-width:1"/><path fill="#A3A797" d="m36.2 21.3.1.2v.4-.4z" style="stroke-width:1"/><path fill="#C5DD98" d="m29.2 20.2.2.6v.1-.3l-.2-.2z" style="stroke-width:1"/><path fill="#A0A0A0" d="M38 18.1c0 .3 0 .3-.2.5l-.1.1v-.2l.1-.2z" style="stroke-width:1"/><path fill="#636B76" d="m16.8 17.4-.2.5h-.1l.2-.4Z" style="stroke-width:1"/><path fill="#6F6E70" d="M35.4 16.5v1z" style="stroke-width:1"/><path fill="#BCBFC2" d="M23.4 14.4v.6l-.1.3v-.5z" style="stroke-width:1"/><path fill="#C5C8CC" d="M13.4 7.9h.1l-.3.4c0-.2.1-.3.3-.4" style="stroke-width:1"/><path fill="#727982" d="m9 7.7.2.1.2.1v.2L9 7.8Z" style="stroke-width:1"/><path fill="#7A8089" d="M20.3 6.7c.1.2.2.1.3 0V7l-.3-.1z" style="stroke-width:1"/><path fill="#58606C" d="M8.5 3.8c0 .3 0 .5-.2.6z" style="stroke-width:1"/><path fill="#B4CD89" d="M19.8 38.9v.2h.1l-.2.2V39h.1Z" style="stroke-width:1"/><path fill="#5A6443" d="M28.6 37.9v.2h-.1V38" style="stroke-width:1"/><path fill="#99B3CB" d="M11.4 35.7h.3v.2h-.2z" style="stroke-width:1"/><path fill="#D6DEC8" d="M24.7 34.8v.1l.1.2-.2.2v-.5" style="stroke-width:1"/><path fill="#D0DFB2" d="M24.6 29.7h.1v.2l-.1.3z" style="stroke-width:1"/><path fill="#666566" d="M33 27.5v.7l-.1.2v-.9Z" style="stroke-width:1"/><path fill="#545556" d="M15 27.4v.7z" style="stroke-width:1"/><path fill="#B4B2A5" d="M14 25v.1l.1.2.1.3-.1-.1v-.2H14z" style="stroke-width:1"/><path fill="#A5A5AC" d="M11.3 21h.1v.6-.5h-.1z" style="stroke-width:1"/><path fill="#657F96" d="M16.8 17.8v.3h-.1l-.1.1v-.3h.1z" style="stroke-width:1"/><path fill="#6B6F73" d="M13.5 17.8v.2l.2.1-.1.3v-.6" style="stroke-width:1"/><path fill="#918F93" d="M19.9 16.4v.2h.1v.5z" style="stroke-width:1"/><path fill="#727F8D" d="m19.8 12.2.1.3v.3-.6" style="stroke-width:1"/><path fill="#4F5C6B" d="M19.6 10.5v.5z" style="stroke-width:1"/><path fill="#5E758B" d="M18 4.5c.2 0 .3 0 .4.3h-.2l-.1-.1v-.2" style="stroke-width:1"/><path fill="#8EB6D8" d="M19 3v.4l-.1.1h-.1c0-.2 0-.2.2-.3v-.1Z" style="stroke-width:1"/><path fill="#414B59" d="M19.2 2h.1v.6-.5Z" style="stroke-width:1"/><path fill="#B0D766" d="m20.9 38.1-.1.1h-.1v.2h-.2c0-.2.2-.4.4-.3" style="stroke-width:1"/><path fill="#DDE2D4" d="M21.4 38v.3h-.2l.2-.2" style="stroke-width:1"/><path fill="#BDBDBD" d="m19.3 37.8.2.4v.1l-.2-.4Z" style="stroke-width:1"/><path fill="#707476" d="M15.3 30h.1v.8-.8Z" style="stroke-width:1"/><path fill="#5C546B" d="M8.3 30.2v.1h.2v.2h-.2z" style="stroke-width:1"/><path fill="#CCDEA9" d="M25.8 29v.7l-.1-.2V29" style="stroke-width:1"/><path fill="#81A3C0" d="m14.6 28.6.1.2v.5-.7Z" style="stroke-width:1"/><path fill="#8C9BA8" d="M14.5 24.3v.3h.1v.5-.8Z" style="stroke-width:1"/><path fill="#DAE2CA" d="M30 23.1h.1v.3h.1v.2H30h.1V23Z" style="stroke-width:1"/><path fill="#585F6A" d="M9.9 18.2v.8z" style="stroke-width:1"/><path fill="#86ACCC" d="M16.5 18.2v.2h-.1v.1h-.1z" style="stroke-width:1"/><path fill="#7F876E" d="m34.3 17.3.2.4-.2-.1z" style="stroke-width:1"/><path fill="#7B9EBB" d="m18 17.1.2.5H18z" style="stroke-width:1"/><path fill="#90B16C" d="M30.7 15.9v.1h-.3l.1-.1z" style="stroke-width:1"/><path fill="#566A7F" d="M18.8 15.3h.1q0 .3-.3.3v-.1h.1v-.2Z" style="stroke-width:1"/><path fill="#444D5A" d="M23.1 15.3v.4z" style="stroke-width:1"/><path fill="#B8B4B8" d="M9 12.4v.6z" style="stroke-width:1"/><path fill="#90969E" d="m20.6 7.2-.3.2v-.2z" style="stroke-width:1"/><path fill="#86ADCC" d="M11.4 5v.1c0 .2 0 .2-.2.2v.3-.4s.2 0 .2-.2" style="stroke-width:1"/><path fill="#404A57" d="M19.2 3.8v.6z" style="stroke-width:1"/><path fill="#8DA174" d="M21.4 38.5h.3v.2h-.2v-.1Z" style="stroke-width:1"/><path fill="#7A64A7" d="M5.2 37.6h.1c0 .3 0 .4-.2.6l.1-.4z" style="stroke-width:1"/><path fill="#D4E0BB" d="m33.4 37.9-.2.2H33c.1-.2.3-.3.4-.2" style="stroke-width:1"/><path fill="#D2DFB5" d="M33.7 37.5v.1l-.1.2h-.2z" style="stroke-width:1"/><path fill="#8369B2" d="m3.6 34.5-.1.2-.2.1v-.1l.2-.2" style="stroke-width:1"/><path fill="#7864A5" d="m3.5 32.5-.3.2c0-.2.2-.2.3-.2" style="stroke-width:1"/><path fill="#DBE2CC" d="M25 31.4v.5z" style="stroke-width:1"/><path fill="#8A8297" d="m5.5 31.2.2.2.1.3v-.1h-.1l-.2-.3z" style="stroke-width:1"/><path fill="#79787B" d="m5.3 31 .3.1v.2c-.2 0-.2 0-.3-.2z" style="stroke-width:1"/><path fill="#818181" d="M3.2 30.2h.2c-.1.2-.1.2-.3.2v-.2Z" style="stroke-width:1"/><path fill="#A1B7CC" d="m12.4 24.3.2.6-.2-.2z" style="stroke-width:1"/><path fill="#B7C9A3" d="m29.7 21 .1.5a1 1 0 0 1-.1-.6m-.2-.6.2.6a.9.9 0 0 1-.2-.6m-.2-.6.2.6a.9.9 0 0 1-.2-.6m-.2-.6.2.6a1 1 0 0 1-.2-.6" style="stroke-width:1"/><path fill="#706F71" d="M37.5 18.8c0 .2-.1.3-.2.3h-.1v-.2h.1z" style="stroke-width:1"/><path fill="#454D58" d="M13.2 18.5v.8z" style="stroke-width:1"/><path fill="#B9B9BA" d="M35.4 14.5v.8z" style="stroke-width:1"/><path fill="#485463" d="M17.7 14.4v.7z" style="stroke-width:1"/><path fill="#668098" d="M17.8 11.3v.7z" style="stroke-width:1"/><path fill="#848A92" d="M23.3 9.8v.2l.1.1v.2l-.1-.6" style="stroke-width:1"/><path fill="#D8DADD" d="M21.3 7.2c.3 0 .3 0 .4.2h-.4z" style="stroke-width:1"/><path fill="#79858F" d="M10.5 5.6c.1 0 .2 0 .3.2h-.1z" style="stroke-width:1"/><path fill="#53677A" d="M12 4.2h.2c0 .3-.2.3-.3.3v-.2h.2Z" style="stroke-width:1"/><path fill="#68839B" d="M10.5 4.3h.2v.3-.2z" style="stroke-width:1"/><path fill="#88AECE" d="M18.4 1.8c-.1.2-.2.2-.4.2v-.1z" style="stroke-width:1"/><path fill="#848B74" d="M24 38.6h.2v.2h-.1v-.2Z" style="stroke-width:1"/><path fill="#7F7E7F" d="M7.3 38.2c.2 0 .2 0 .2.2h-.2z" style="stroke-width:1"/><path fill="#CBDEA6" d="m29.8 38 .3.1h-.2V38Z" style="stroke-width:1"/><path fill="#C7DD9B" d="M19.6 38h.1v.3l-.1-.1v-.3Z" style="stroke-width:1"/><path fill="#9473CD" d="M5 37.8v.1l-.1.2h-.2l.2-.3Z" style="stroke-width:1"/><path fill="#B1D766" d="m21.7 37.6.1.1v.1l-.3.1v-.1h.2z" style="stroke-width:1"/><path fill="#C6D2B8" d="m23 37.3-.1.1h-.2v-.1z" style="stroke-width:1"/><path fill="#84A8C7" d="m10.5 33.8.1.2v.2l.1.1v.1l-.2-.4z" style="stroke-width:1"/><path fill="#666" d="M2.5 31.5v.4l-.1.3v-.7" style="stroke-width:1"/><path fill="#676F51" d="m32.9 30.8.1.2-.1.2z" style="stroke-width:1"/><path fill="#676667" d="M30.2 25.2v.6H30v-.5h.1v-.1Z" style="stroke-width:1"/><path fill="#CDCFD3" d="M16 18.2h.1l-.3.2v-.1h.1v-.1Z" style="stroke-width:1"/><path fill="#A2B6C9" d="m9.7 15.6.1.4v-.2h-.1z" style="stroke-width:1"/><path fill="#CACDD1" d="M17.6 14.4v.7z" style="stroke-width:1"/><path fill="#BDBFC3" d="M23.5 13.8v.6z" style="stroke-width:1"/><path fill="#676E79" d="M12 13h.1v.7-.7Z" style="stroke-width:1"/><path fill="#535353" d="M12.6 11.6v.6z" style="stroke-width:1"/><path fill="#404A57" d="m17.5 10.2.1.3v.2z" style="stroke-width:1"/><path fill="#7190AB" d="M19.9 7.4V8h-.2z" style="stroke-width:1"/><path fill="#576B7F" d="M13.4 7.5v.2h-.1v.1h-.1z" style="stroke-width:1"/><path fill="#475363" d="M17.8 2h.1-.2" style="stroke-width:1"/><path fill="#D7E0C2" d="M19.7 38.2h.1v.2h-.1z" style="stroke-width:1"/><path fill="#C5D2B8" d="M24.5 37.3v.2h-.3z" style="stroke-width:1"/><path fill="#505862" d="M18.6 36.5v.4-.1l-.2-.1h.1z" style="stroke-width:1"/><path fill="#727172" d="M6.7 36.6v.4z" style="stroke-width:1"/><path fill="#646C4E" d="m29 32.9.1.1-.2.4.2-.5Z" style="stroke-width:1"/><path fill="#85A9C7" d="m15.1 31.9.1.7v-.7Z" style="stroke-width:1"/><path fill="#5B7086" d="M20.6 31.9v.2l-.1.4V32l.1-.2Z" style="stroke-width:1"/><path fill="#7C836A" d="m30.3 31.7-.1.6v-.6Z" style="stroke-width:1"/><path fill="#94B472" d="M36.7 30.4v.7z" style="stroke-width:1"/><path fill="#5A6067" d="M21.4 28.6v.7z" style="stroke-width:1"/><path fill="#6C757C" d="m14.2 21.2.1.4v.2-.6" style="stroke-width:1"/><path fill="#4C5764" d="M13.4 21v.2h.1v.5-.7" style="stroke-width:1"/><path fill="#83A8C7" d="m20 17.3.1.1v.2h-.2.1z" style="stroke-width:1"/><path fill="#434D5A" d="M22.8 16.2v.4h-.1z" style="stroke-width:1"/><path fill="#757D62" d="M32.7 16c.2 0 .3 0 .4.2h-.4z" style="stroke-width:1"/><path fill="#5B7085" d="M17.6 15.5v.6z" style="stroke-width:1"/><path fill="#6C727E" d="M15.5 14.4v.3h.1v.4-.7Z" style="stroke-width:1"/><path fill="#6D6D6E" d="M12.4 10.4v.7z" style="stroke-width:1"/><path fill="#85A9C9" d="M17.5 9.8v.2h.1v.2z" style="stroke-width:1"/><path fill="#414A57" d="M21.9 7.3h.1v.3z" style="stroke-width:1"/><path fill="#586979" d="M9.6 6.4v.4z" style="stroke-width:1"/><path fill="#7E848C" d="m9 3.3-.2.3v-.1l.1-.2" style="stroke-width:1"/><path fill="#C3C5BD" d="m27.2 38.4-.1.2H27v-.2z" style="stroke-width:1"/><path fill="#666C73" d="M18.7 37.3v.5z" style="stroke-width:1"/><path fill="#7D846B" d="M21 37.1v.2z" style="stroke-width:1"/><path fill="#765DA0" d="m2.8 34-.2.5v-.3l.1-.3" style="stroke-width:1"/><path fill="#6A6E71" d="m15.6 31.6.1.7v-.7Z" style="stroke-width:1"/><path fill="#987EC8" d="M7.3 30.1h.2v.3l-.2-.1z" style="stroke-width:1"/><path fill="#4E5662" d="M9.5 26.2v.1h.1l-.1.3z" style="stroke-width:1"/><path fill="#717476" d="M14.3 22.5v.6l-.1-.4v-.2Z" style="stroke-width:1"/><path fill="#9FBBD4" d="m11.6 21.5.1.6-.1-.3z" style="stroke-width:1"/><path fill="#7E858E" d="M16.4 17.9v.2h-.2c.1-.2.1-.2.3-.2" style="stroke-width:1"/><path fill="#9FBBD4" d="m10.1 17 .2.5-.2-.3z" style="stroke-width:1"/><path fill="#99B679" d="M29 16.9h.1c0 .2 0 .2-.2.3 0-.2 0-.3.2-.3" style="stroke-width:1"/><path fill="#CBCACB" d="m12.3 13.1.1.7v-.7Z" style="stroke-width:1"/><path fill="#5D6D7D" d="M19.9 12.8v.4z" style="stroke-width:1"/><path fill="#8B8E93" d="M12 11.6h.2v.3h-.1v-.3Z" style="stroke-width:1"/><path fill="#566372" d="M19.7 11.4v.5z" style="stroke-width:1"/><path fill="#68849C" d="m17.2 9.1.2.2v.2z" style="stroke-width:1"/><path fill="#A0A4AB" d="M20 8v.2h-.2v.3-.2l.1-.4" style="stroke-width:1"/></svg>